<svg width="48" height="48" viewBox="0 0 48 48" fill="none" xmlns="http://www.w3.org/2000/svg">
<path fill-rule="evenodd" clip-rule="evenodd" d="M24 0C10.7452 0 0 10.7452 0 24C0 37.2548 10.7452 48 24 48C37.2548 48 48 37.2548 48 24C48 10.7452 37.2548 0 24 0ZM24 45.6C12.0707 45.6 2.4 35.9293 2.4 24C2.4 12.0707 12.0707 2.4 24 2.4C35.9293 2.4 45.6 12.0707 45.6 24C45.6 35.9293 35.9293 45.6 24 45.6Z" fill="white"/>
<path fill-rule="evenodd" clip-rule="evenodd" d="M12 13.9137C12 13.7883 12.269 13.6942 12.4258 13.6942C13.6489 13.6315 15.4448 13.6001 17.3264 13.6001C22.5954 13.6001 24.6475 16.4855 24.6475 20.1864C24.6475 25.0163 21.1447 27.0862 16.848 27.0862C16.4547 27.0862 16.2012 27.0769 15.9707 27.0683C15.7784 27.0612 15.6021 27.0547 15.3739 27.0547V34.3575C15.3739 34.5145 15.3112 34.5773 15.1544 34.5773H12.2195C12.0627 34.5773 12 34.5145 12 34.3575V13.9137ZM15.3739 24.0126C15.813 24.0438 16.158 24.0438 16.9107 24.0438C19.1375 24.0438 21.2289 23.2597 21.2289 20.2489C21.2289 17.8337 19.7334 16.6108 17.193 16.6108C16.4403 16.6108 15.7189 16.6419 15.3739 16.6735V24.0125V24.0126ZM29.7272 23.1345C29.7272 22.5072 30.229 21.7545 31.7344 21.7545C32.9578 21.7545 34.2034 22.0681 35.05 22.5699C35.2382 22.6327 35.3323 22.5384 35.3323 22.3818V19.7781C35.3323 19.6526 35.3009 19.496 35.1441 19.4017C34.5168 19.1196 33.3653 18.8687 31.7344 18.8687C28.4101 18.8687 26.497 20.9075 26.497 23.3538C26.497 25.5491 27.626 26.8663 30.3233 28.1524C32.2364 29.1558 32.6755 29.7519 32.6755 30.4419C32.6755 31.2887 32.0482 31.916 30.5428 31.916C29.2881 31.916 27.9049 31.5708 26.7131 30.7869C26.5876 30.693 26.4936 30.7557 26.4936 30.9439V33.7352C26.4936 33.892 26.5249 33.9861 26.6504 34.0488C27.4658 34.5191 28.8806 34.8643 30.5428 34.8643C33.6791 34.8643 36 33.2334 36 30.191C36 28.1526 35.0591 26.7726 32.0796 25.3299C30.0722 24.2947 29.7272 23.8245 29.7272 23.1345Z" fill="white"/>
</svg>
