<svg width="48" height="48" viewBox="0 0 48 48" fill="none" xmlns="http://www.w3.org/2000/svg">
<path fill-rule="evenodd" clip-rule="evenodd" d="M24 0C10.7452 0 0 10.7452 0 24C0 37.2548 10.7452 48 24 48C37.2548 48 48 37.2548 48 24C48 10.7452 37.2548 0 24 0ZM34.9622 26.996C35.2554 27.6503 35.3849 27.9502 35.5315 28.3311C35.8278 29.0984 35.991 29.8668 35.9991 30.6161C36.0124 31.3859 35.8727 32.159 35.5914 32.8762C35.1582 33.9845 34.3873 34.9497 33.4111 35.6044C32.3023 36.3534 30.9321 36.6916 29.6051 36.5504C28.4637 36.4406 27.3323 35.9972 26.2773 35.2903C25.5084 34.7794 24.0177 33.3374 24.0177 33.3374C24.0177 33.3374 22.4793 34.8233 21.5032 35.4334C20.4364 36.1067 19.285 36.5093 18.1385 36.5712C17.2312 36.6258 16.3096 36.4594 15.4735 36.0912C14.4004 35.6203 13.4784 34.8065 12.8637 33.7924C12.1498 32.6239 11.8607 31.2025 12.0631 29.8551C12.1587 29.1567 12.3773 28.499 12.7634 27.6197C13.3888 26.2017 14.0389 24.7824 14.9593 22.8114C16.2178 20.1278 17.5072 17.4809 18.8282 14.8701L18.9682 14.5936L19.0044 14.522C19.3111 13.9154 19.4719 13.6043 19.6674 13.2475C20.0158 12.6151 20.3648 12.1233 20.781 11.7219C21.5757 10.9329 22.6563 10.4567 23.7975 10.4L24.2704 10.401C25.3569 10.4699 26.4027 10.9279 27.1754 11.6781C27.6145 12.0927 27.978 12.5994 28.3347 13.2477C28.5295 13.6043 28.6792 13.8943 29.0076 14.5432C29.096 14.718 29.1361 14.7969 29.1863 14.8956C31.1715 18.8213 33.0642 22.7815 34.8637 26.7761L34.9622 26.996Z" fill="white"/>
<path d="M31.7977 33.6222C31.165 33.9826 30.4008 34.1127 29.6714 33.9885C28.8026 33.8508 27.9483 33.4018 27.0594 32.6725C26.5371 32.2451 25.7385 31.373 25.7385 31.373C25.7385 31.373 27.2227 29.2628 27.7233 28.2379C28.3447 26.9616 28.6951 25.7698 28.7321 24.5862C28.7568 23.6974 28.5822 22.8409 28.2034 22.1056C27.6918 21.0924 26.7728 20.2948 25.6907 19.9069C24.711 19.5505 23.6189 19.5164 22.6116 19.8089C21.6429 20.088 20.7771 20.68 20.1854 21.4822C19.67 22.1742 19.3608 23.0342 19.2899 23.9317C19.1954 25.0528 19.4279 26.2192 19.9279 27.454C20.5196 28.8903 22.2788 31.3906 22.2788 31.3906C22.2788 31.3906 21.5458 32.1518 21.1376 32.5088C20.2513 33.2725 19.4111 33.7578 18.5476 33.948C17.7883 34.1216 16.9887 34.0291 16.3235 33.6864C15.531 33.2841 14.92 32.5234 14.6908 31.6536C14.5183 31.0248 14.5475 30.328 14.7652 29.6745C14.8932 29.292 15.0224 28.9836 15.3265 28.3051C15.3393 28.2766 15.3393 28.2766 15.3521 28.2481C15.4076 28.1242 15.4435 28.0438 15.4803 27.9606C17.2417 24.0492 19.1066 20.1456 21.0717 16.2537C21.1134 16.1712 21.1468 16.1052 21.2217 15.9566C21.5803 15.2459 21.7433 14.9293 21.9508 14.5483C22.2291 14.0441 22.4743 13.7165 22.77 13.4877C23.1244 13.2054 23.5691 13.0541 24.0074 13.0642C24.4761 13.0589 24.9344 13.2289 25.2888 13.5323C25.6053 13.7999 25.8473 14.1528 26.1709 14.7678C26.636 15.6576 27.0407 16.4604 27.7822 17.952C27.8484 18.0852 27.8484 18.0852 27.9147 18.2184C29.5909 21.5982 31.1789 24.9617 32.6923 28.3379C32.7129 28.385 32.7288 28.4214 32.7674 28.509C32.7816 28.5412 32.7816 28.5412 32.7957 28.5732C33.0802 29.2181 33.1969 29.511 33.298 29.8742C33.4643 30.4776 33.4656 31.1214 33.2983 31.7052C33.0688 32.5117 32.5157 33.2178 31.7977 33.6222Z" fill="white"/>
<path d="M23.671 28.8105C23.6486 28.7778 23.6486 28.7778 23.6261 28.7451C23.613 28.726 23.613 28.726 23.5998 28.7068C23.1326 28.0089 22.7538 27.3402 22.4576 26.672C22.1756 26.0278 21.9981 25.446 21.9273 24.8832C21.867 24.362 21.9004 23.9136 22.0425 23.5392C22.1773 23.1673 22.4335 22.8462 22.7598 22.6345C23.5756 22.0983 24.7393 22.1673 25.4575 22.7991C25.8007 23.0969 26.0261 23.5536 26.083 24.0525C26.1546 24.6904 26.0351 25.3859 25.7478 26.1674C25.3677 27.1836 24.0011 29.2804 24.0011 29.2804C24.0011 29.2804 24.0122 29.3071 23.671 28.8105Z" fill="white"/>
</svg>
