<svg width="48" height="48" viewBox="0 0 48 48" fill="none" xmlns="http://www.w3.org/2000/svg">
<path fill-rule="evenodd" clip-rule="evenodd" d="M24 0C10.7452 0 0 10.7452 0 24C0 37.2548 10.7452 48 24 48C37.2548 48 48 37.2548 48 24C48 10.7452 37.2548 0 24 0ZM34.3104 22.3144C34.3104 22.5773 34.2829 22.8346 34.239 23.0857C36.6006 23.4895 38.4 25.5412 38.4 28.0174C38.4 30.7834 36.1574 33.0261 33.3913 33.0261H14.6087C11.8426 33.0261 9.6 30.7834 9.6 28.0174C9.6 25.6733 11.2128 23.7105 13.3885 23.1646C13.3722 22.9574 13.3565 22.7501 13.3565 22.5391C13.3565 18.0438 17.0003 14.4 21.4957 14.4C24.3675 14.4 26.8863 15.8913 28.335 18.1377C28.8121 17.9637 29.3249 17.8641 29.8602 17.8641C32.3176 17.8641 34.3104 19.8563 34.3104 22.3144Z" fill="white"/>
</svg>
