<svg width="48" height="48" viewBox="0 0 48 48" fill="none" xmlns="http://www.w3.org/2000/svg">
<path fill-rule="evenodd" clip-rule="evenodd" d="M0 24C0 37.2548 10.7452 48 24 48C37.2548 48 48 37.2548 48 24C48 10.7452 37.2548 0 24 0C10.7452 0 0 10.7452 0 24ZM37.1253 14.7527C37.1253 14.7527 37.5999 21.3059 37.5999 22.4083C37.5999 22.4447 37.5999 22.4808 37.6 22.5167C37.601 24.0427 37.6017 25.0941 35.6615 27.0349C34.6982 27.9982 23.9998 38.6966 23.5498 39.1468C23.0998 39.5968 21.3242 41.1225 18.7262 38.5245L14.6179 34.4146L14.3858 34.1825L10.2775 30.0742C7.68115 27.478 9.20335 25.7024 9.65338 25.2524C9.87267 25.0339 12.5071 22.3995 15.2701 19.6365C18.198 16.7086 21.2704 13.6363 21.7669 13.1407C23.7075 11.1984 24.7607 11.1991 26.287 11.2C26.3216 11.2001 26.3565 11.2001 26.3917 11.2001C27.4957 11.2001 34.0491 11.6746 34.0491 11.6746C35.0878 11.6746 35.7842 12.0614 36.2569 12.5431C36.7404 13.0176 37.1253 13.7138 37.1253 14.7527Z" fill="white"/>
<path d="M26.1673 25.9425L29.8326 27.6832L28.4845 30.0953L25.0943 27.8814C25.0156 27.8296 24.9264 27.8028 24.837 27.8028C24.7584 27.8028 24.6801 27.8225 24.6086 27.8634C24.4568 27.951 24.3692 28.117 24.3817 28.2917L24.6621 32.3017H21.9485H21.936C21.9465 32.2676 22.1592 28.2899 22.1592 28.2899C22.1717 28.1152 22.0842 27.949 21.9323 27.8616C21.7787 27.774 21.5914 27.7813 21.4468 27.8794L18.151 30.1182L16.6799 27.7779L20.3773 25.9423C20.5362 25.8675 20.638 25.7065 20.638 25.5299C20.638 25.3532 20.5362 25.1924 20.3773 25.1176L16.7103 23.3769L18.0582 20.9652L21.4468 23.1807C21.5914 23.2771 21.7787 23.2877 21.9323 23.1985C22.0842 23.1109 22.1715 22.9451 22.1592 22.7699L21.8806 18.76H24.596L24.3817 22.7699C24.3692 22.9449 24.4568 23.1109 24.6086 23.1985C24.762 23.2877 24.9514 23.2771 25.0943 23.1807L28.3901 20.9418L29.8612 23.2826L26.1673 25.1178C26.0083 25.1928 25.9066 25.3534 25.9066 25.5301C25.9066 25.7069 26.0083 25.8677 26.1673 25.9425Z" fill="white"/>
<path d="M32.4372 18.2526C31.4773 18.2526 30.7019 17.4756 30.7019 16.5175C30.7019 15.5595 31.4771 14.7843 32.4372 14.7843C33.3915 14.7843 34.1667 15.5595 34.1667 16.5175C34.1667 17.4756 33.3915 18.2526 32.4372 18.2526Z" fill="white"/>
</svg>
