<svg width="48" height="48" viewBox="0 0 48 48" fill="none" xmlns="http://www.w3.org/2000/svg">
<path fill-rule="evenodd" clip-rule="evenodd" d="M24 0C10.7452 0 0 10.7452 0 24C0 37.2548 10.7452 48 24 48C37.2548 48 48 37.2548 48 24C48 10.7452 37.2548 0 24 0ZM36.5388 21.4089C36.7119 22.2497 36.8 23.116 36.8 23.9823C36.8 24.8479 36.7119 25.7123 36.5388 26.555C36.37 27.3776 36.12 28.1852 35.7925 28.9572C35.4725 29.7156 35.0756 30.4464 34.6118 31.1279C34.1549 31.8052 33.6286 32.4405 33.0505 33.0197C32.4711 33.5964 31.8335 34.1212 31.1566 34.58C30.4729 35.0406 29.741 35.4369 28.9822 35.7584C28.209 36.0842 27.3995 36.3338 26.5776 36.5023C25.7339 36.6759 24.8663 36.7645 23.9994 36.7645C23.1319 36.7645 22.2643 36.6759 21.4218 36.5023C20.5987 36.3338 19.7892 36.0842 19.0167 35.7584C18.2579 35.4369 17.5253 35.0406 16.8416 34.58C16.1647 34.1213 15.5271 33.5964 14.949 33.0197C14.3702 32.4405 13.8439 31.8052 13.3864 31.1279C12.9251 30.4464 12.5276 29.7155 12.2063 28.9572C11.8788 28.1852 11.6282 27.3775 11.4588 26.555C11.2875 25.7123 11.2 24.8479 11.2 23.9823C11.2 23.116 11.2875 22.2497 11.4588 21.4089C11.6282 20.5863 11.8788 19.7774 12.2064 19.0066C12.5276 18.2477 12.9252 17.5163 13.3864 16.8347C13.844 16.1569 14.3703 15.5227 14.949 14.9429C15.5272 14.3662 16.1647 13.8426 16.8416 13.3845C17.5254 12.922 18.258 12.5257 19.0167 12.2036C19.7893 11.8771 20.5987 11.6269 21.4219 11.4596C22.2644 11.2874 23.1319 11.2 23.9995 11.2C24.8664 11.2 25.7339 11.2874 26.5777 11.4596C27.3996 11.6269 28.209 11.8772 28.9822 12.2036C29.741 12.5256 30.4729 12.922 31.1567 13.3845C31.8336 13.8426 32.4712 14.3662 33.0505 14.9429C33.6287 15.5227 34.155 16.1569 34.6119 16.8347C35.0756 17.5163 35.4725 18.2478 35.7925 19.0066C36.12 19.7774 36.37 20.5863 36.5388 21.4089Z" fill="white"/>
<path fill-rule="evenodd" clip-rule="evenodd" d="M31.2175 15.7914L31.2185 15.7899C29.294 14.0954 26.767 13.0675 23.9993 13.0675C23.1112 13.0675 22.2492 13.1749 21.4236 13.3733L21.4413 13.3971C21.7002 13.7433 23.692 16.4073 25.51 19.7407C29.6009 18.2092 31.1659 15.8685 31.2175 15.7914ZM32.4405 17.0491C32.3979 17.1098 30.6396 19.6184 26.3514 21.3672C26.6051 21.8877 26.8508 22.4175 27.0776 22.95C27.1583 23.141 27.237 23.3282 27.3139 23.5154C30.9972 23.0526 34.6269 23.8075 34.9139 23.8672L34.9268 23.8699C34.9018 21.2823 33.9748 18.9074 32.4411 17.0482L32.4405 17.0491ZM27.9801 25.238C29.414 29.1726 29.9965 32.3769 30.1078 33.0347C32.5623 31.3808 34.3055 28.7544 34.7917 25.7123C34.5667 25.6399 31.5085 24.6731 27.9801 25.238ZM25.9319 25.7436C27.4701 29.7355 28.1051 33.0784 28.267 34.0321C26.9551 34.5893 25.5131 34.8971 23.9993 34.8971C21.4642 34.8971 19.1366 34.0277 17.2808 32.5866C17.3036 32.5372 19.4098 28.0125 25.8594 25.7673C25.8746 25.7618 25.8899 25.7569 25.9054 25.7521L25.9319 25.7436ZM24.2999 22.08C24.6131 22.6929 24.9125 23.3145 25.1869 23.9349C25.0431 23.9761 24.8981 24.0185 24.7556 24.066C18.8566 25.9708 15.8651 31.2703 15.8689 31.2759C14.1275 29.3429 13.0681 26.7865 13.0681 23.9823C13.0681 23.9014 13.0708 23.8222 13.0735 23.7424C13.0747 23.7065 13.0759 23.6705 13.0769 23.6341C13.2706 23.6415 18.6716 23.7626 24.2999 22.08ZM23.3943 20.3991C21.5023 17.0425 19.481 14.3033 19.3353 14.1091C16.287 15.5466 14.0119 18.3514 13.3025 21.7317L13.313 21.7318C13.6866 21.7352 18.2011 21.777 23.3943 20.3991Z" fill="white"/>
</svg>
