<svg width="48" height="48" viewBox="0 0 48 48" fill="none" xmlns="http://www.w3.org/2000/svg">
<path fill-rule="evenodd" clip-rule="evenodd" d="M24 0C10.7452 0 0 10.7452 0 24C0 37.2548 10.7452 48 24 48C37.2548 48 48 37.2548 48 24C48 10.7452 37.2548 0 24 0ZM17.6437 11.2H31.3393C33.3436 11.2 33.8886 12.3555 33.4666 14.5244C32.904 17.3332 31.0932 26.2219 30.935 26.8442C30.7416 27.5908 30.4076 28.8175 28.6494 28.8175H24.5355C24.4652 28.8175 24.4124 28.8175 24.307 28.9419C24.2015 29.0664 17.6965 36.7284 17.6965 36.7284C17.1339 37.2973 16.3428 37.2084 16.0439 37.084C15.745 36.9596 15.2 36.6396 15.2 35.5552V13.5466C15.2 12.64 15.7626 11.2 17.6437 11.2Z" fill="white"/>
<path d="M30.5306 14.951L29.9152 17.9554C29.8449 18.2754 29.546 18.5599 29.1768 18.5599H23.8322C23.2345 18.5599 22.7422 19.0576 22.7422 19.6621V20.3198C22.7422 20.9243 23.2345 21.422 23.8322 21.422H28.3506C28.7725 21.422 29.1241 21.8309 29.0362 22.2753C28.9483 22.7376 28.4736 25.0842 28.4209 25.3331C28.3857 25.5997 28.1044 25.9375 27.6825 25.9375H23.9905C23.2169 25.9553 23.0587 25.9731 22.6016 26.5419C22.1445 27.1108 18.1008 32.2308 18.1008 32.2308C18.0657 32.2841 18.0305 32.2663 18.0305 32.213V14.8088C18.0305 14.3999 18.3645 14.0621 18.7689 14.0621H29.8625C30.2493 14.0621 30.6361 14.4533 30.5306 14.951Z" fill="white"/>
</svg>
