<svg width="48" height="48" viewBox="0 0 48 48" fill="none" xmlns="http://www.w3.org/2000/svg">
<path fill-rule="evenodd" clip-rule="evenodd" d="M0 24C0 10.7452 10.7452 0 24 0C37.2548 0 48 10.7452 48 24C48 37.2548 37.2548 48 24 48C10.7452 48 0 37.2548 0 24ZM36.4642 29.6294C37.0201 28.9761 36.869 28.3324 36.1346 28.3324C35.901 28.3324 35.7244 28.3928 35.7244 28.3928C35.7244 28.3928 35.7271 27.4395 35.2771 26.697C34.9302 27.0793 33.9671 27.8367 32.7034 28.4245C31.5185 28.9757 29.9373 29.4585 27.9778 29.5224H27.9777C27.9062 29.5255 27.8383 29.5266 27.7737 29.5277C27.3431 29.5351 27.0647 29.5399 26.8986 30.0849C26.8832 30.1409 26.8733 30.2036 26.868 30.2676C28.7346 30.8421 31.5451 29.9432 32.4652 29.649L32.4653 29.6489L32.4657 29.6488L32.4657 29.6488C32.604 29.6046 32.6995 29.5741 32.7425 29.5643C32.7563 29.5613 32.765 29.5594 32.7733 29.5593C32.9861 29.5761 30.9494 30.8351 28.1232 30.8351C27.6459 30.8351 27.2347 30.7942 26.9098 30.7304C27.0644 31.2495 27.4683 31.4784 27.9997 31.5995C28.4028 31.6915 28.831 31.7002 28.831 31.7002C32.7466 31.8078 35.9686 28.8353 36.1016 28.6825C36.1016 28.6825 36.0665 28.763 36.0623 28.7722C35.4884 30.037 32.165 32.3305 28.857 32.2648L28.8462 32.2685C28.0791 32.2657 27.147 32.0722 26.6624 31.4835C25.8957 30.552 26.2935 29.003 27.5155 28.9668L27.5967 28.9649L27.5998 28.9648L27.6088 28.9646C27.7024 28.9625 27.8439 28.9592 27.923 28.9572C30.9485 28.8661 33.6633 27.777 35.6071 25.5026C35.8743 25.1773 35.5757 24.7304 34.9965 24.7168H34.9882C34.9882 24.7168 34.985 24.7129 34.983 24.7109C34.3626 24.06 33.81 23.7894 33.313 23.5459C33.2598 23.5199 33.2073 23.4942 33.1554 23.4683C32.9932 23.3874 32.8566 23.3282 32.7407 23.278C32.5413 23.1915 32.4035 23.1318 32.3028 23.0338C32.0773 22.8145 32.0383 22.4034 31.912 21.0717C31.9 20.9449 31.8872 20.8098 31.8734 20.6656C31.8025 19.9307 31.6604 18.9283 31.0015 18.544C30.8287 18.4432 30.6399 18.4 30.4439 18.4C30.2846 18.4 30.1925 18.4262 30.1436 18.4401C30.1331 18.4431 30.1245 18.4456 30.1178 18.447C29.7764 18.5212 29.5743 18.7045 29.3359 18.9206L29.2945 18.9582C28.2975 19.8589 27.4648 19.82 26.3973 19.77L26.3972 19.77C26.1637 19.7591 25.919 19.7477 25.6589 19.7454C24.2976 19.7338 23.0956 20.6642 22.8657 22.093L22.8654 22.0938C22.7536 22.8418 22.8259 23.6017 22.9455 23.9433C22.9455 23.9433 22.5761 23.7026 22.4 23.4894C22.6131 24.7947 23.8285 25.6478 23.8285 25.6478C23.637 25.6909 23.3617 25.673 23.3617 25.673C23.3629 25.674 24.0554 26.2107 24.6566 26.3979C24.5 26.4934 23.7076 27.2595 23.299 28.3141C22.9167 29.3011 23.0724 30.4859 23.0724 30.4859L23.4045 30.0008C23.4045 30.0008 23.1876 31.0818 23.6074 32.1288C23.7467 31.8173 24.051 31.2614 24.051 31.2614C24.051 31.2614 24.0028 32.4223 24.5731 33.3729C24.5878 33.1535 24.6734 32.595 24.6734 32.595C24.6734 32.595 25.0007 33.586 25.7568 34.279C27.1724 35.5097 30.9201 35.732 33.7726 33.5358C35.826 31.955 36.3391 30.0804 36.4439 29.6977C36.4544 29.6593 36.4608 29.636 36.4642 29.6294ZM19.1554 27.4329C19.463 29.3997 18.1411 31.2 16.3996 31.2C14.8534 31.2 13.6 29.7673 13.6 28C13.6 26.2326 14.8534 24.8 16.3996 24.8C16.8004 24.8 17.1815 24.8963 17.5263 25.0697C17.5263 25.0697 18.1213 25.3955 18.2887 26.9349C18.463 26.4539 18.5508 26.0592 18.5508 26.0592C18.7503 26.7213 18.8524 27.4179 18.8124 28.122C18.9778 27.883 19.1554 27.4329 19.1554 27.4329ZM23.2253 17.1607C26.2899 15.241 29.3511 15.0203 30.3997 15.7996L30.4 15.7993L30.3999 15.799C30.3975 15.7927 30.381 15.749 30.3746 15.7369C30.1083 15.1901 29.487 14.8086 28.9335 14.6555C29.0305 14.753 29.1711 14.9314 29.2279 15.0375C28.8101 14.7602 28.255 14.516 27.6757 14.4C27.6757 14.4 27.7448 14.4479 27.7566 14.4586C27.872 14.5625 28.0257 14.7268 28.0886 14.8678C27.5349 14.6529 26.835 14.5326 26.2359 14.6441C26.2275 14.6456 26.161 14.6608 26.161 14.6608C26.161 14.6608 26.239 14.6796 26.2563 14.6845C26.455 14.7415 26.7386 14.8585 26.8635 15.0189C25.8689 14.8498 24.7749 15.0369 24.1848 15.3558L24.1988 15.3552C24.2609 15.3526 24.2642 15.3525 24.3241 15.354C24.5411 15.3596 24.9784 15.3881 25.162 15.501C24.5347 15.6244 23.6268 15.8956 23.1381 16.3018L23.1599 16.2993C23.2869 16.2846 23.7271 16.2338 23.9144 16.2629C21.2418 17.741 20.0159 19.9709 20.0002 19.9997L20 19.9999V20L20.0002 19.9997C20.7932 19.0009 21.8222 18.0396 23.2253 17.1607ZM12.7243 25.6C12.7128 25.597 11.6265 24.8086 11.472 24.5491C10.558 23.0239 12.1481 19.8912 13.2797 18.1105C16.0762 13.7096 20.7308 10.2366 22.8448 10.7326L23.4263 10.5123L25.0159 11.8407C26.1078 11.1923 27.4992 10.5313 28.8 10.4C28.0083 10.5762 27.0437 10.982 25.9008 11.6736C25.873 11.6895 23.1964 13.4758 21.5611 15.0797C20.7002 15.9241 17.3315 19.9126 17.1062 20.1795C17.0982 20.1888 17.0942 20.1936 17.0943 20.1935C17.7483 18.9696 18.1792 18.3688 19.2145 17.0813C19.8 16.3531 20.4248 15.6449 21.0645 14.991C21.3614 14.6874 21.6616 14.3955 21.9626 14.1187C22.1694 13.9284 22.3767 13.7452 22.5835 13.5703C22.6787 13.4898 22.7738 13.411 22.8688 13.3341L22.8692 13.3337L20.7718 11.6212L20.8828 12.3887L22.4073 13.7168C22.4073 13.7168 21.0582 14.6149 20.3872 15.1811C17.6976 17.4505 15.0583 20.9344 14.0762 24.3256L14.123 24.324C13.6339 24.5905 13.1483 25.0182 12.7243 25.6Z" fill="white"/>
<path d="M23.9999 12.4416L22.3999 12L23.4572 12.8C23.6112 12.695 23.7935 12.5737 23.9999 12.4416Z" fill="white"/>
<path d="M16.6704 27.8656C16.6101 27.8101 16.582 27.7628 16.5654 27.6898C16.5408 27.557 16.5536 27.4798 16.6514 27.4002C16.7267 27.3402 16.7873 27.3115 16.7875 27.2737C16.7909 27.2027 16.539 27.1294 16.3629 27.3305C16.2166 27.5113 16.1704 27.8883 16.4037 28.1821C16.6635 28.5075 17.0675 28.5842 17.1304 28.9931C17.1387 29.0511 17.1448 29.1156 17.1405 29.1793C17.1414 29.2525 17.1204 29.3577 17.1193 29.3643C17.0412 29.7594 16.7181 30.1364 16.1854 30.0402C16.0873 30.0237 16.0237 30.0097 16.0047 30.0411C15.9637 30.1075 16.1919 30.4107 16.6099 30.3997C17.2067 30.385 17.7003 29.681 17.5825 28.8943C17.4759 28.2086 16.8888 28.0677 16.6704 27.8656Z" fill="white"/>
<path d="M27.4734 23.8389C27.7491 23.929 27.9358 23.9983 27.9881 23.947C28.0143 23.922 27.9969 23.8618 27.932 23.7822C27.7607 23.5717 27.4333 23.3918 27.1416 23.3018C26.4756 23.0936 25.6961 23.2116 25.1287 23.5918C24.8466 23.7844 24.7217 23.9827 24.8507 23.9988C24.9299 24.0088 25.0949 23.9512 25.3276 23.8767C26.2478 23.584 26.7678 23.6177 27.4734 23.8389Z" fill="white"/>
<path fill-rule="evenodd" clip-rule="evenodd" d="M33.5999 36V36.1919H33.7086V36.8H33.8162V36.1919H33.9263V36H33.5999ZM34.1801 36.4603L34.1128 36H33.9592V36.8H34.0575V36.2223L34.1377 36.8H34.2215L34.3017 36.2208V36.8H34.3999V36H34.2463L34.1801 36.4603Z" fill="white"/>
<path d="M26.9307 24.455C27.0758 24.4687 27.173 24.481 27.1955 24.4256C27.2454 24.3068 26.8609 23.8984 26.3355 24.0236C26.27 24.0376 26.2094 24.066 26.1498 24.0884C26.128 24.096 26.107 24.1069 26.0866 24.1189C25.9574 24.1951 25.8456 24.2774 25.7371 24.4232C25.6126 24.592 25.5772 24.7488 25.6132 24.7872C25.6486 24.8269 25.7347 24.7682 25.868 24.6927C26.3142 24.4326 26.6299 24.4257 26.9307 24.455Z" fill="white"/>
<path d="M30.5005 22.2297C30.7503 22.2004 30.9932 22.2598 31.1999 22.3999C31.1839 21.595 30.8376 20.6883 30.576 20.8112V20.8111C30.5758 20.8113 30.5759 20.8112 30.5757 20.8113C30.4227 20.8789 30.3969 21.2424 30.4002 21.4624C30.4075 21.7266 30.4376 21.9707 30.5005 22.2297Z" fill="white"/>
<path d="M29.8514 24.7198C30.0565 24.8525 30.2892 24.8169 30.3712 24.6403C30.4532 24.4637 30.3533 24.213 30.1482 24.0803C29.9431 23.9475 29.7104 23.9831 29.6285 24.1597C29.5466 24.3363 29.6464 24.587 29.8514 24.7198Z" fill="white"/>
<path d="M31.2089 23.5548C31.1627 23.7743 31.3004 23.9724 31.5163 23.9973C31.7323 24.0223 31.9448 23.8646 31.991 23.6452C32.0372 23.4257 31.8995 23.2275 31.6836 23.2026C31.4676 23.1776 31.255 23.3353 31.2089 23.5548Z" fill="white"/>
<path d="M17.2171 27.5002C17.3656 27.7295 17.3183 27.8634 17.3793 27.9284C17.4012 27.9519 17.4326 27.9593 17.464 27.9454C17.5481 27.9075 17.5895 27.7614 17.5974 27.6594C17.5974 27.6594 17.5975 27.6587 17.5975 27.6587H17.5975C17.6186 27.4136 17.4999 27.1381 17.3425 26.9429L17.3421 26.9423H17.3421C17.1373 26.6827 16.8147 26.4827 16.4494 26.4209C16.1165 26.3644 15.789 26.4367 15.6975 26.4665L15.698 26.4664C15.6509 26.4813 15.5926 26.4948 15.5425 26.5161C14.6472 26.8972 14.2594 27.8503 14.4454 28.7986L14.4454 28.7984C14.4913 29.0276 14.5853 29.2855 14.7319 29.455L14.7323 29.4555H14.7323C14.9157 29.6718 15.1166 29.6303 15.0308 29.4292C15.0103 29.3735 14.8996 29.1458 14.8847 28.7335C14.8695 28.3094 14.9597 27.8688 15.2082 27.532C15.3928 27.2857 15.6195 27.1753 15.646 27.1592H15.6461C15.6778 27.1408 15.7109 27.1282 15.7468 27.1099C15.7607 27.1035 15.777 27.0981 15.7948 27.0926C15.9088 27.0576 15.8441 27.0728 15.9596 27.046L15.9595 27.0461C16.5752 26.9037 17.0201 27.1956 17.2171 27.5002Z" fill="white"/>
<path d="M23.2886 12.6237L23.6 12.8L23.348 11.2L23.2 11.997L23.2886 12.6237Z" fill="white"/>
<path d="M24.8 12.5313L24 12L24.2906 12.8C24.4505 12.7133 24.6208 12.6232 24.8 12.5313Z" fill="white"/>
</svg>
