<svg width="48" height="48" viewBox="0 0 48 48" fill="none" xmlns="http://www.w3.org/2000/svg">
<path fill-rule="evenodd" clip-rule="evenodd" d="M24 0C10.7452 0 0 10.7452 0 24C0 37.2548 10.7452 48 24 48C37.2548 48 48 37.2548 48 24C48 10.7452 37.2548 0 24 0ZM14.4352 20.5109C14.4836 20.5509 14.5366 20.5969 14.5919 20.6464C14.4636 20.0131 14.3962 19.358 14.3962 18.6872C14.3962 13.2256 18.857 8.8 24.3578 8.8C29.8618 8.8 34.3218 13.2256 34.3218 18.6872C34.3218 19.6586 34.1806 20.5974 33.9174 21.4844C33.9717 21.4353 34.0256 21.3857 34.0792 21.3357C34.1 21.3165 34.6544 22.0349 34.9032 22.7653C35.1696 23.5477 35.4392 24.3989 35.1936 24.5933L35.1398 24.6357C35.561 25.2645 35.9517 25.9877 36.2723 26.7701C37.4475 29.6365 36.9891 32.6293 36.3475 32.7701C35.8051 32.8896 34.7674 32.0034 33.7526 30.6158C33.5129 32.2529 32.6803 33.7376 31.439 34.9161C33.3976 35.5147 34.7178 36.697 34.5683 37.8735C34.3835 39.3343 31.9995 40.2335 29.2459 39.8839C27.1464 39.6161 25.4368 38.6981 24.8267 37.629C24.6231 37.6398 24.4178 37.6452 24.211 37.6452C24.0914 37.6452 23.9723 37.6434 23.8538 37.6398C23.2422 38.7008 21.4909 39.5934 19.3234 39.8285C16.4826 40.1349 14.0066 39.1973 13.7898 37.7325C13.6152 36.5657 14.9294 35.4166 16.9068 34.8421C15.6555 33.6241 14.8352 32.0895 14.6431 30.4023C13.5003 31.787 12.3367 32.5327 11.8902 32.2954C11.0206 31.8314 10.8102 28.9858 12.2222 26.1698C12.6187 25.3802 13.0832 24.6702 13.5705 24.0692L13.5568 24.0573C13.4816 23.9917 13.5048 23.7821 13.5048 23.7821C13.5048 23.7821 13.6232 23.3229 13.82 22.2229C13.9576 21.4541 14.2696 20.5109 14.4352 20.5109Z" fill="white"/>
<path d="M17.1602 24.6051C16.5666 25.8227 16.2266 27.2067 16.2266 28.6771C16.2266 33.5315 19.8834 37.4667 24.3946 37.4667C28.9058 37.4667 32.5618 33.5315 32.5618 28.6771C32.5618 27.2467 32.2378 25.9003 31.6746 24.7067C27.5178 26.8259 19.9066 25.2731 17.1602 24.6051Z" fill="white"/>
<path fill-rule="evenodd" clip-rule="evenodd" d="M21.7223 18.7947C22.7999 18.7947 23.6727 17.7259 23.6727 16.4075C23.6727 15.0891 22.7999 14.0203 21.7223 14.0203C20.6455 14.0203 19.7727 15.0891 19.7727 16.4075C19.7727 17.7259 20.6455 18.7947 21.7223 18.7947ZM22.1519 14.9095C22.8247 14.9095 23.3711 15.5863 23.3711 16.4207C23.3711 17.2551 22.8247 17.9319 22.1519 17.9319C21.4783 17.9319 20.9319 17.2551 20.9319 16.4207C20.9319 15.5863 21.4783 14.9095 22.1519 14.9095Z" fill="white"/>
<path fill-rule="evenodd" clip-rule="evenodd" d="M27.3219 18.808C28.3995 18.808 29.2723 17.7392 29.2723 16.4208C29.2723 15.1024 28.3995 14.0336 27.3219 14.0336C26.2459 14.0336 25.3723 15.1024 25.3723 16.4208C25.3723 17.7392 26.2459 18.808 27.3219 18.808ZM26.4104 16.8093C26.396 16.8117 26.3824 16.8133 26.368 16.8133C26.2536 16.8133 26.1528 16.7309 26.132 16.6149C26.1192 16.5421 26.1128 16.4661 26.1128 16.3885C26.1128 15.7501 26.5656 15.2309 27.1216 15.2309C27.6776 15.2309 28.1304 15.7501 28.1304 16.3885C28.1304 16.4445 28.1272 16.4989 28.1208 16.5525C28.104 16.6837 27.9824 16.7765 27.852 16.7605C27.7208 16.7437 27.628 16.6237 27.644 16.4925C27.6488 16.4589 27.6512 16.4237 27.6512 16.3885C27.6512 16.0149 27.4136 15.7109 27.1216 15.7109C26.8296 15.7109 26.592 16.0149 26.592 16.3885C26.592 16.4373 26.5968 16.4853 26.6048 16.5309C26.628 16.6621 26.5408 16.7861 26.4104 16.8093Z" fill="white"/>
<path fill-rule="evenodd" clip-rule="evenodd" d="M31.0876 21.0323C29.7692 20.0915 27.4052 19.4611 24.6988 19.4611C21.9836 19.4611 19.6124 20.0955 18.2964 21.0419C18.626 21.8187 19.622 22.4235 20.5988 22.9851C21.7788 23.6635 23.7172 24.1227 24.6924 24.1227C25.5924 24.1227 27.8204 23.5163 29.0236 22.7299C29.151 22.6468 29.2794 22.5652 29.4068 22.4842C30.1259 22.0273 30.8117 21.5916 31.0876 21.0323ZM22.2373 22.7698C20.9061 21.9994 19.5693 20.9578 19.2573 20.6474C19.2573 20.6474 20.7565 21.9314 22.1357 22.3146C23.7485 22.7626 26.0789 22.5514 26.9621 22.2554C28.5677 21.7162 30.2741 20.5546 30.2741 20.5546C30.2741 20.5546 28.7661 21.7082 27.2109 22.725C27.143 22.7693 27.0745 22.8153 27.0049 22.8621C26.2734 23.3533 25.4168 23.9286 23.7717 23.5722C23.405 23.4932 22.8056 23.1207 22.449 22.8991C22.3615 22.8447 22.2886 22.7994 22.2373 22.7698Z" fill="white"/>
<path d="M22.916 16.0771C22.916 16.4139 22.6872 16.6875 22.4048 16.6875C22.1224 16.6875 21.8936 16.4139 21.8936 16.0771C21.8936 15.7411 22.1224 15.4683 22.4048 15.4683C22.6872 15.4683 22.916 15.7411 22.916 16.0771Z" fill="white"/>
</svg>
