<svg width="48" height="48" viewBox="0 0 48 48" fill="none" xmlns="http://www.w3.org/2000/svg">
<path fill-rule="evenodd" clip-rule="evenodd" d="M0 24C0 37.2548 10.7452 48 24 48C37.2548 48 48 37.2548 48 24C48 10.7452 37.2548 0 24 0C10.7452 0 0 10.7452 0 24ZM12.896 19.4667C14.3027 19.4667 15.5709 20.0645 16.4639 21.0217L27.2184 15.9685C27.0816 15.5144 27.008 15.0325 27.008 14.5333C27.008 11.8087 29.2 9.6 31.904 9.6C34.608 9.6 36.8 11.8087 36.8 14.5333C36.8 17.2579 34.608 19.4667 31.904 19.4667C30.7541 19.4667 29.6968 19.0672 28.8613 18.3986L17.7323 23.6277C17.7716 23.8793 17.792 24.1372 17.792 24.4C17.792 24.6628 17.7716 24.9207 17.7323 25.1723L28.8613 30.4014C29.6968 29.7328 30.7541 29.3333 31.904 29.3333C34.608 29.3333 36.8 31.5421 36.8 34.2667C36.8 36.9913 34.608 39.2 31.904 39.2C29.2 39.2 27.008 36.9913 27.008 34.2667C27.008 33.7675 27.0816 33.2856 27.2184 32.8315L16.4639 27.7783C15.5709 28.7355 14.3027 29.3333 12.896 29.3333C10.192 29.3333 8 27.1246 8 24.4C8 21.6754 10.192 19.4667 12.896 19.4667Z" fill="white"/>
</svg>
