<svg width="48" height="48" viewBox="0 0 48 48" fill="none" xmlns="http://www.w3.org/2000/svg">
<path fill-rule="evenodd" clip-rule="evenodd" d="M0 24C0 37.2548 10.7452 48 24 48C37.2548 48 48 37.2548 48 24C48 10.7452 37.2548 0 24 0C10.7452 0 0 10.7452 0 24ZM32.9432 15.0905C33.0442 15.1074 33.1789 15.1747 33.1958 15.3263C33.2059 15.4172 34.3229 22.972 35.2165 29.0158C35.814 33.0571 36.3116 36.4227 36.3116 36.4295L27.4863 38.3326L11.2 35.2842C11.2 35.2842 13.2884 19.1158 13.3726 18.5263C13.4737 17.7684 13.5074 17.7516 14.2989 17.4989C14.372 17.4807 14.7021 17.3784 15.2171 17.2188C15.6525 17.0838 16.22 16.908 16.8758 16.7074C17.4316 14.3663 19.1832 9.76842 22.8716 9.75158C23.3432 9.75158 23.8989 10.0211 24.3537 10.6105H24.4884C26.0716 10.6105 26.9811 11.9579 27.4695 13.4232C27.9916 13.2547 28.3116 13.1537 28.3284 13.1537C28.4632 13.12 28.7832 13.0695 28.9516 13.2379C29.1032 13.4063 30.6358 14.9221 30.6358 14.9221C30.6358 14.9221 32.8421 15.0737 32.9432 15.0905Z" fill="white"/>
<path d="M26.5768 13.7095C26.1726 13.8442 25.701 13.979 25.1957 14.1306V13.8274C25.1957 12.9179 25.061 12.1769 24.8589 11.6042C25.6841 11.7221 26.2399 12.6485 26.5768 13.7095Z" fill="white"/>
<path d="M23.8652 11.7894C24.0841 12.3621 24.2357 13.1705 24.2357 14.2652V14.4168C23.3431 14.6863 22.3662 14.9894 21.3894 15.2926C21.9452 13.2042 22.9726 12.1768 23.8652 11.7894Z" fill="white"/>
<path d="M22.7705 10.7621C22.922 10.7621 23.0905 10.8126 23.242 10.9137C22.0631 11.4695 20.7999 12.8673 20.261 15.6631C19.4863 15.8989 18.7115 16.1347 18.0042 16.3537C18.6442 14.2316 20.1263 10.7621 22.7705 10.7621Z" fill="white"/>
<path d="M24.4885 19.9748L23.3937 23.2084C23.3937 23.2084 22.4337 22.7032 21.2716 22.7032C19.5537 22.7032 19.4695 23.7811 19.4695 24.0505C19.4695 25.5327 23.3264 26.0884 23.3264 29.5579C23.3264 32.2863 21.5916 34.0379 19.2674 34.0379C16.4716 34.0379 15.04 32.3032 15.04 32.3032L15.7811 29.8274C15.7811 29.8274 17.2464 31.0905 18.4927 31.0905C19.3011 31.0905 19.6379 30.4505 19.6379 29.979C19.6379 28.0421 16.4716 27.9579 16.4716 24.7916C16.4716 22.1305 18.3916 19.5369 22.2485 19.5369C23.7642 19.5537 24.4885 19.9748 24.4885 19.9748Z" fill="white"/>
</svg>
