<svg width="48" height="48" viewBox="0 0 48 48" fill="none" xmlns="http://www.w3.org/2000/svg">
<path fill-rule="evenodd" clip-rule="evenodd" d="M0 24C0 37.2548 10.7452 48 24 48C37.2548 48 48 37.2548 48 24C48 10.7452 37.2548 0 24 0C10.7452 0 0 10.7452 0 24ZM18.8993 12.8H29.4884L34.5957 15.0468L38.8085 19.7796L24.2043 39.2L9.6 19.7796L13.8232 15.0884L18.8993 12.8Z" fill="white"/>
<path d="M26.3223 35.961L33.0777 24.8442L35.9171 22.4502L26.3223 35.961Z" fill="white"/>
<path d="M17.2542 25.4695H30.943L24.2042 37.8893L17.2542 25.4695Z" fill="white"/>
<path d="M12.4814 22.4502L15.3209 24.8442L22.0763 35.961L12.4814 22.4502Z" fill="white"/>
<path d="M14.0629 16.2534L18.4208 18.4378L15.3002 23.2643L10.8071 19.9056L14.0629 16.2534Z" fill="white"/>
<path d="M19.8452 13.5604H28.642L32.973 15.4704L28.6235 17.365H19.8266L15.521 15.472L19.8452 13.5604Z" fill="white"/>
<path d="M31.2776 23.8885H16.8606L19.7299 18.7915L28.3235 18.8123L31.2776 23.8885Z" fill="white"/>
<path d="M37.5916 19.9056L32.9731 23.3616L29.6887 18.4404L34.3357 16.2534L37.5916 19.9056Z" fill="white"/>
</svg>
