<svg width="48" height="48" viewBox="0 0 48 48" fill="none" xmlns="http://www.w3.org/2000/svg">
<path fill-rule="evenodd" clip-rule="evenodd" d="M24 0C10.7452 0 0 10.7452 0 24C0 37.2548 10.7452 48 24 48C37.2548 48 48 37.2548 48 24C48 10.7452 37.2548 0 24 0ZM33.2395 18.1363L37.9851 18.1395C37.9851 18.1395 36.9269 19.5888 36.5941 21.0359C36.9845 21.5717 37.3109 22.167 37.5499 22.824C38.9099 26.5505 37.0219 30.71 33.344 32.0911C31.5637 32.7578 29.6299 32.6799 27.904 31.8746C26.8661 31.3854 25.9808 30.6678 25.2949 29.7824L23.7696 32.103L22.256 29.803C20.9525 31.4492 18.9547 32.5089 16.7136 32.5089C12.7936 32.5089 9.60427 29.2737 9.60427 25.2971C9.60427 23.705 10.1184 22.2373 10.9835 21.0446C10.6453 19.6072 9.6 18.1742 9.6 18.1742L14.048 18.1709C16.6944 16.4153 20.0501 15.4683 23.7664 15.4683C27.3472 15.4683 30.5781 16.3926 33.2395 18.1363Z" fill="white"/>
<path fill-rule="evenodd" clip-rule="evenodd" d="M16.7114 31.0541C18.6634 31.0541 20.3892 30.0475 21.41 28.5203C21.9263 27.7486 22.2346 26.8362 22.3295 25.8621C22.3358 25.8011 22.3439 25.7406 22.3521 25.6801C22.3691 25.5546 22.386 25.4288 22.386 25.2982C22.386 22.1215 19.8399 19.54 16.7114 19.54C13.5828 19.54 11.0356 22.1215 11.0356 25.2982C11.0356 28.4684 13.5818 31.0541 16.7114 31.0541ZM16.6218 28.792C14.6847 28.792 13.1082 27.1955 13.1082 25.2289C13.1082 23.2666 14.6847 21.6712 16.6218 21.6701C18.5535 21.6701 20.13 23.2677 20.13 25.2289C20.13 27.1955 18.5546 28.792 16.6218 28.792Z" fill="white"/>
<path fill-rule="evenodd" clip-rule="evenodd" d="M28.5045 30.5531C29.8815 31.1982 31.4239 31.2577 32.8458 30.7262C35.7813 29.6222 37.2885 26.307 36.2047 23.3294C35.1199 20.3508 31.8517 18.8225 28.9151 19.9211C27.4933 20.4536 26.3605 21.5176 25.7247 22.9149C25.3002 23.8501 25.1573 24.8621 25.2522 25.8611C25.2991 26.3535 25.3855 26.8428 25.5583 27.3168C25.7098 27.7357 25.9167 28.1199 26.1514 28.4814C26.7274 29.3744 27.5274 30.0942 28.5045 30.5531ZM30.865 28.7921C28.9279 28.7921 27.3535 27.1956 27.3535 25.229C27.3535 23.2667 28.929 21.6713 30.865 21.6702C32.7989 21.6702 34.3722 23.2678 34.3722 25.229C34.3722 27.1956 32.7989 28.7921 30.865 28.7921Z" fill="white"/>
<path fill-rule="evenodd" clip-rule="evenodd" d="M16.6239 22.8965C15.3546 22.8965 14.3188 23.9431 14.3188 25.229C14.3188 26.5202 15.3546 27.5679 16.6239 27.5668C17.8911 27.5668 18.9215 26.5191 18.9215 25.229C18.9215 23.9442 17.8911 22.8965 16.6239 22.8965ZM16.6196 24.034C17.2714 24.033 17.8004 24.5687 17.8004 25.229C17.8004 25.8903 17.2714 26.4314 16.6196 26.4314C15.9658 26.4314 15.4378 25.8903 15.4378 25.229C15.4378 24.5687 15.9658 24.034 16.6196 24.034Z" fill="white"/>
<path fill-rule="evenodd" clip-rule="evenodd" d="M30.8671 22.8965C29.5967 22.8965 28.5642 23.9431 28.5642 25.229C28.5642 26.5202 29.5957 27.5679 30.8671 27.5668C32.1343 27.5668 33.1637 26.5191 33.1637 25.229C33.1637 23.9442 32.1343 22.8965 30.8671 22.8965ZM30.8661 24.034C31.5178 24.033 32.0447 24.5687 32.0447 25.229C32.0447 25.8903 31.5178 26.4314 30.8661 26.4314C30.2101 26.4314 29.6842 25.8903 29.6842 25.229C29.6842 24.5687 30.2101 24.034 30.8661 24.034Z" fill="white"/>
<path d="M28.417 18.5541C29.1573 18.277 29.9146 18.1428 30.6623 18.1222C28.625 17.1957 26.3189 16.7271 23.7642 16.7271C21.2287 16.7271 18.8895 17.2076 16.8533 18.0897C20.5386 18.1644 23.5349 21.0933 23.793 24.7841C23.8559 23.9366 24.0597 23.0989 24.4202 22.3055C25.2149 20.5521 26.6357 19.2208 28.417 18.5541Z" fill="white"/>
</svg>
