<svg width="48" height="48" viewBox="0 0 48 48" fill="none" xmlns="http://www.w3.org/2000/svg">
<path fill-rule="evenodd" clip-rule="evenodd" d="M24 0C10.7452 0 0 10.7452 0 24C0 37.2548 10.7452 48 24 48C37.2548 48 48 37.2548 48 24C48 10.7452 37.2548 0 24 0ZM9.6 23.9996C9.6 16.0595 16.0597 9.6 23.9999 9.6C31.9401 9.6 38.4 16.0595 38.4 23.9996C38.4 31.9402 31.9401 38.4 23.9999 38.4C16.0597 38.4 9.6 31.9402 9.6 23.9996Z" fill="white"/>
<path fill-rule="evenodd" clip-rule="evenodd" d="M23.9997 37.7398C16.4239 37.7398 10.2603 31.5757 10.2603 23.9996C10.2603 16.4238 16.4239 10.2604 23.9997 10.2604C31.5756 10.2604 37.7394 16.4238 37.7394 23.9996C37.7394 31.5757 31.5756 37.7398 23.9997 37.7398ZM11.9999 24.1823C11.9999 29.0279 14.9382 33.216 19.1999 35.2L13.1061 19.2C12.3973 20.7224 11.9999 22.4074 11.9999 24.1823ZM30.9932 20.3472C31.4565 21.1724 31.9973 22.2324 31.9973 23.764C31.9973 24.7559 31.6464 25.8968 31.1706 27.4435L31.0706 27.769L29.8556 31.8978L25.4542 18.5802C26.1873 18.541 26.8479 18.4626 26.8479 18.4626C27.5042 18.3835 27.4268 17.4025 26.7702 17.4416C26.7702 17.4416 24.7975 17.599 23.5242 17.599C22.3276 17.599 20.3166 17.4416 20.3166 17.4416C19.6599 17.4025 19.5829 18.4231 20.2393 18.4626C20.2393 18.4626 20.8606 18.541 21.5168 18.5802L23.4141 23.8689L20.7485 32L16.3137 18.5802C17.0475 18.541 17.7076 18.4626 17.7076 18.4626C18.3634 18.3835 18.2858 17.4025 17.6296 17.4416C17.6296 17.4416 15.6573 17.599 14.3837 17.599C14.1552 17.599 13.8859 17.5934 13.5999 17.584C15.7776 14.2209 19.5206 12 23.7756 12C26.9463 12 29.8331 13.2332 31.9999 15.2527C31.9826 15.2516 31.9655 15.2502 31.9483 15.2487C31.9133 15.2458 31.8783 15.2428 31.8421 15.2428C30.6457 15.2428 29.7968 16.3029 29.7968 17.4416C29.7968 18.3822 30.2883 19.1893 30.8483 20.1088L30.8487 20.1095C30.8965 20.1879 30.9447 20.2671 30.9932 20.3472ZM24.3152 24.8L20.7999 35.4999C21.8497 35.8233 22.9597 36 24.1095 36C25.4737 36 26.7822 35.7533 27.9999 35.3043C27.9687 35.2516 27.9396 35.1959 27.9159 35.1352L24.3152 24.8ZM35.3099 19.6853C35.3099 19.2252 35.2787 18.7981 35.2234 18.4C36.2281 20.1802 36.7999 22.2232 36.7999 24.3963C36.7999 29.0076 34.2265 33.0335 30.3999 35.2L34.3311 24.1621C35.0654 22.379 35.3099 20.9531 35.3099 19.6853Z" fill="white"/>
</svg>
