<svg width="24" height="24" viewBox="0 0 24 24" fill="none" xmlns="http://www.w3.org/2000/svg">
<path d="M10.8239 2.8322L2.6216 6.22543C2.16548 6.41411 2.17021 7.06181 2.62925 7.24379L10.8658 10.5093C11.5895 10.7962 12.3954 10.7962 13.1191 10.5093L21.3558 7.2437C21.8147 7.0619 21.8195 6.4142 21.3632 6.22543L13.1611 2.83212C12.4128 2.52257 11.5722 2.52265 10.8239 2.8322Z" fill="#1F222E"/>
<path d="M12.723 12.2924V20.45C12.723 20.8381 13.1142 21.1038 13.475 20.9608L22.6531 17.3991C22.7554 17.3585 22.8432 17.2881 22.9051 17.1971C22.967 17.106 23 16.9985 23 16.8884V8.73065C23 8.34263 22.6087 8.07702 22.248 8.21997L13.0699 11.7816C12.9675 11.8222 12.8797 11.8926 12.8179 11.9837C12.756 12.0747 12.723 12.1823 12.723 12.2924Z" fill="#1F222E"/>
<path d="M1 16.4217C1 16.8265 1.46523 17.092 1.8297 16.9162L10.6214 12.6912C11.0095 12.4639 10.9628 11.8778 10.5342 11.7078L1.81508 8.25399C1.64845 8.18806 1.45242 8.21006 1.31503 8.2925L1.17571 8.39696C1.07504 8.49218 1 8.61855 1 8.76493V16.4217Z" fill="#1F222E"/>
</svg>
