<svg width="24" height="24" viewBox="0 0 24 24" fill="none" xmlns="http://www.w3.org/2000/svg">
<path d="M16.5034 0H16.3429C15.1419 0.156132 13.8882 0.857894 13.2041 1.64633C12.4669 2.49256 11.8584 3.57687 11.9653 5.12181C13.57 5.24571 14.5619 4.42893 15.2864 3.5866C16.0247 2.73843 16.6324 1.56743 16.5034 0Z" fill="#1F222E"/>
<path d="M21.2 16.1325V16.0889C19.6303 15.3549 18.3735 14.1098 18.1992 11.9811C18.0031 9.63804 19.1516 8.26591 20.6045 7.35523C19.8512 6.19563 18.6322 5.44414 16.9147 5.18855C15.5951 4.9928 14.5693 5.36233 13.5491 5.72983C13.4646 5.7603 13.38 5.79075 13.2954 5.82086C13.2036 5.85384 13.112 5.89018 13.0206 5.92645C12.7365 6.03924 12.4541 6.15132 12.1706 6.15952C11.7373 6.17236 11.2852 5.98292 10.8852 5.81531C10.7747 5.76901 10.6681 5.72437 10.567 5.68612C10.0747 5.50276 9.51276 5.31718 8.96263 5.23328C7.67899 5.03992 6.52654 5.4722 5.68809 5.97977C4.0992 6.93434 2.90415 8.90378 2.80005 11.326V12.3206C3.04577 15.7053 4.36693 18.3501 6.07628 20.3976C6.65603 21.0904 7.45189 21.8594 8.43789 22H8.89577C9.46965 21.9203 9.9458 21.7394 10.4176 21.5602C11.0497 21.3201 11.674 21.0829 12.5151 21.0963C13.2058 21.1079 13.7757 21.326 14.3408 21.5423C14.9116 21.7608 15.4775 21.9775 16.1583 21.9775C17.6494 21.9775 18.5165 20.7957 19.2142 19.8448C19.2502 19.7958 19.2857 19.7473 19.3209 19.6997C20.106 18.6301 20.7492 17.4774 21.2 16.1325Z" fill="#1F222E"/>
</svg>
