<svg width="24" height="24" viewBox="0 0 24 24" fill="none" xmlns="http://www.w3.org/2000/svg">
<path fill-rule="evenodd" clip-rule="evenodd" d="M17.6503 11.794C15.2482 11.794 13.3007 13.7429 13.3007 16.1471C13.3007 18.5512 15.2482 20.5 17.6503 20.5C20.0526 20.5 22 18.5512 22 16.1471C22 13.7429 20.0526 11.794 17.6503 11.794ZM6.34964 11.7945C3.94742 11.7945 2 13.7429 2 16.1471C2 18.5512 3.94742 20.5 6.34964 20.5C8.75197 20.5 10.6995 18.5512 10.6995 16.1471C10.6995 13.7429 8.75197 11.7945 6.34964 11.7945ZM16.3496 6.3528C16.3496 8.757 14.4023 10.7061 12 10.7061C9.59769 10.7061 7.65038 8.757 7.65038 6.3528C7.65038 3.94907 9.59769 2 12 2C14.4023 2 16.3496 3.94907 16.3496 6.3528Z" fill="#1F222E"/>
</svg>
