<svg width="24" height="24" viewBox="0 0 24 24" fill="none" xmlns="http://www.w3.org/2000/svg">
<path d="M7.18972 4.8C7.85359 4.8 8.46639 4.85089 9.02812 5.00354C9.58985 5.1053 10.0495 5.30884 10.458 5.56325C10.8665 5.81767 11.1729 6.17385 11.3772 6.63181C11.5814 7.08976 11.6836 7.64947 11.6836 8.26007C11.6836 8.97244 11.5304 9.58304 11.1729 10.041C10.8665 10.4989 10.3559 10.906 9.74305 11.2113C10.6112 11.4657 11.2751 11.9237 11.6836 12.5343C12.0921 13.1449 12.3474 13.9081 12.3474 14.7731C12.3474 15.4855 12.1942 16.0961 11.9389 16.605C11.6836 17.1138 11.2751 17.5717 10.8155 17.877C10.3559 18.1823 9.79412 18.4368 9.18132 18.5894C8.56852 18.7421 7.95572 18.8438 7.34292 18.8438H0.5V4.8H7.18972ZM6.78119 10.4989C7.34292 10.4989 7.80252 10.3463 8.15999 10.0919C8.51745 9.83746 8.67065 9.37951 8.67065 8.81979C8.67065 8.51449 8.61959 8.20919 8.51745 8.00566C8.41532 7.80212 8.26212 7.64947 8.05786 7.49682C7.85359 7.39506 7.64932 7.29329 7.39399 7.24241C7.13866 7.19152 6.88332 7.19152 6.57692 7.19152H3.61506V10.4989H6.78119ZM6.93439 16.5032C7.24079 16.5032 7.54719 16.4523 7.80252 16.4014C8.05786 16.3505 8.31319 16.2488 8.51745 16.0961C8.72172 15.9435 8.87492 15.7908 9.02812 15.5364C9.13025 15.282 9.23239 14.9767 9.23239 14.6205C9.23239 13.9081 9.02812 13.3993 8.61959 13.0431C8.21105 12.7378 7.64932 12.5852 6.98546 12.5852H3.61506V16.5032H6.93439ZM16.7902 16.4523C17.1988 16.8594 17.8116 17.0629 18.6286 17.0629C19.1904 17.0629 19.701 16.9103 20.1096 16.6558C20.5181 16.3505 20.7734 16.0452 20.8756 15.7399H23.3778C22.9693 16.9611 22.3565 17.8262 21.5394 18.3859C20.7224 18.8947 19.7521 19.2 18.5776 19.2C17.7605 19.2 17.0456 19.0474 16.3817 18.7929C15.7178 18.5385 15.2072 18.1823 14.7476 17.6735C14.288 17.2156 13.9305 16.6558 13.7262 15.9943C13.4709 15.3329 13.3688 14.6205 13.3688 13.8064C13.3688 13.0431 13.4709 12.3307 13.7262 11.6693C13.9816 11.0078 14.339 10.4481 14.7986 9.93923C15.2582 9.48128 15.82 9.07421 16.4328 8.81979C17.0966 8.56537 17.7605 8.41272 18.5776 8.41272C19.4457 8.41272 20.2117 8.56537 20.8756 8.92156C21.5394 9.27774 22.0501 9.68481 22.4586 10.2954C22.8672 10.8551 23.1736 11.5166 23.3778 12.229C23.48 12.9413 23.531 13.6537 23.48 14.4678H16.0753C16.0753 15.282 16.3817 16.0452 16.7902 16.4523ZM20.0074 11.1095C19.65 10.7534 19.0882 10.5498 18.4244 10.5498C17.9648 10.5498 17.6073 10.6516 17.3009 10.8042C16.9945 10.9569 16.7902 11.1604 16.586 11.364C16.3817 11.5675 16.2796 11.8219 16.2285 12.0763C16.1774 12.3307 16.1264 12.5343 16.1264 12.7378H20.7224C20.6202 11.9746 20.3649 11.4657 20.0074 11.1095ZM15.5136 5.76679H21.233V7.14064H15.5136V5.76679Z" fill="#1F222E"/>
</svg>
