<svg width="24" height="24" viewBox="0 0 24 24" fill="none" xmlns="http://www.w3.org/2000/svg">
<path fill-rule="evenodd" clip-rule="evenodd" d="M5.27717 2.9C3.96482 2.9 2.99375 4.041 3.03723 5.27839C3.07896 6.46719 3.02474 8.00685 2.63455 9.26244C2.24297 10.5216 1.58118 11.3195 0.5 11.4219V12.5781C1.58118 12.6808 2.24297 13.4783 2.63451 14.7376C3.02474 15.9932 3.07892 17.5328 3.03719 18.7216C2.9937 19.9588 3.96478 21.1 5.27735 21.1H18.7246C20.0369 21.1 21.0078 19.959 20.9643 18.7216C20.9226 17.5328 20.9768 15.9932 21.367 14.7376C21.7586 13.4783 22.4188 12.6805 23.5 12.5781V11.4219C22.4188 11.3192 21.7586 10.5217 21.367 9.26244C20.9768 8.00703 20.9226 6.46719 20.9643 5.27839C21.0078 4.04118 20.0369 2.9 18.7246 2.9H5.27699H5.27717ZM16.0932 14.1033C16.0932 15.8071 14.8138 16.8405 12.6906 16.8405H9.07626C8.97287 16.8405 8.87371 16.7997 8.80061 16.727C8.7275 16.6544 8.68643 16.5559 8.68643 16.4532V7.54683C8.68643 7.44413 8.7275 7.34564 8.80061 7.27302C8.87371 7.2004 8.97287 7.1596 9.07626 7.1596H12.67C14.4404 7.1596 15.6023 8.1122 15.6023 9.57476C15.6023 10.6013 14.8207 11.5203 13.8249 11.6813V11.7349C15.1805 11.8826 16.0932 12.8152 16.0932 14.1033ZM12.2965 8.38712H10.2356V11.2787H11.9714C13.3132 11.2787 14.0531 10.742 14.0531 9.78261C14.0529 8.88355 13.4168 8.38712 12.2965 8.38712ZM10.2356 12.426V15.6125H12.3723C13.7694 15.6125 14.5094 15.0557 14.5094 14.0092C14.5094 12.9627 13.7486 12.4258 12.2825 12.4258H10.2356V12.426Z" fill="#1F222E"/>
</svg>
