<svg width="24" height="24" viewBox="0 0 24 24" fill="none" xmlns="http://www.w3.org/2000/svg">
<path d="M19.6421 15.1558C19.5157 15.1558 19.4045 15.263 19.2888 15.4971C17.9821 18.1587 15.7253 20.0419 13.1137 20.0419C10.0939 20.0419 8.22382 17.3036 8.22382 13.5205C8.22382 7.11247 11.7782 3.40731 14.9 3.40731C16.3588 3.40731 17.2497 4.3283 17.2497 5.79372C17.2497 7.53306 16.266 8.45389 16.266 9.06745C16.266 9.34282 16.4365 9.50957 16.7746 9.50957C18.133 9.50957 19.7273 7.94167 19.7273 5.72654C19.7273 3.5114 17.8664 2 14.7446 2C9.58512 2 5 6.80488 5 13.4532C5 18.5993 7.92535 22 12.4391 22C17.2298 22 20 17.2118 20 15.6577C20 15.3135 19.8248 15.1558 19.6421 15.1558Z" fill="#1F222E"/>
</svg>
