<svg width="24" height="24" viewBox="0 0 24 24" fill="none" xmlns="http://www.w3.org/2000/svg">
<path fill-rule="evenodd" clip-rule="evenodd" d="M19.9327 20.7977L21.7 1H2.30005L4.06557 20.8008L11.9882 23L19.9327 20.7977ZM11.9917 5.0475H11.9916H5.91003L6.13081 7.47601H11.9917H12H15.414L15.193 9.96282H11.9917V9.96284H6.34741L6.56509 12.3913H12V12.3913H14.9823L14.7004 15.5408L11.9917 16.2719V16.2721L11.9895 16.2727L9.28463 15.5424L9.11172 13.6055H7.79738H6.67371L7.01396 17.4186L11.9889 18.7996L12.0001 18.7965V18.7961L16.9706 17.4186L17.0071 17.0083L17.5779 10.6149L17.6371 9.96282L18.0756 5.0475H12H11.9917Z" fill="#1F222E"/>
</svg>
