<svg width="24" height="24" viewBox="0 0 24 24" fill="none" xmlns="http://www.w3.org/2000/svg">
<path d="M12 1C5.928 1 1 5.928 1 12C1 18.072 5.928 23 12 23C18.05 23 23 18.072 23 12C23 5.928 18.05 1 12 1ZM19.26 6.06C20.58 7.666 21.35 9.69 21.394 11.912C21.086 11.846 17.984 11.23 14.86 11.604C14.794 11.45 14.728 11.274 14.662 11.12C14.464 10.658 14.266 10.196 14.046 9.756C17.478 8.37 19.062 6.324 19.26 6.06ZM12 2.628C14.376 2.628 16.576 3.53 18.226 4.982C18.05 5.224 16.642 7.116 13.298 8.37C11.758 5.532 10.042 3.222 9.8 2.87C10.504 2.716 11.23 2.628 12 2.628ZM7.996 3.508C8.238 3.838 9.91 6.17 11.472 8.942C7.072 10.108 3.2 10.086 2.782 10.086C3.42 7.16 5.378 4.74 7.996 3.508ZM2.606 12.022C2.606 11.934 2.606 11.824 2.606 11.736C3.002 11.758 7.578 11.802 12.264 10.394C12.528 10.922 12.792 11.45 13.034 12C12.924 12.044 12.792 12.066 12.66 12.11C7.82 13.672 5.246 17.94 5.026 18.292C3.508 16.62 2.606 14.42 2.606 12.022ZM12 21.394C9.822 21.394 7.82 20.646 6.236 19.414C6.412 19.062 8.304 15.388 13.606 13.54C13.628 13.518 13.65 13.518 13.672 13.518C14.992 16.95 15.542 19.81 15.674 20.646C14.552 21.13 13.298 21.394 12 21.394ZM17.236 19.788C17.148 19.216 16.642 16.466 15.41 13.1C18.358 12.638 20.932 13.408 21.262 13.496C20.844 16.114 19.348 18.38 17.236 19.788Z" fill="#1F222E"/>
</svg>
