<svg width="24" height="24" viewBox="0 0 24 24" fill="none" xmlns="http://www.w3.org/2000/svg">
<path d="M22.1213 10.3415L19.2633 2.96847C19.2054 2.8237 19.1024 2.70089 18.9694 2.61781C18.87 2.55493 18.7572 2.51593 18.6399 2.50395C18.5226 2.49197 18.4041 2.50733 18.2938 2.54881C18.1836 2.59029 18.0847 2.65673 18.0052 2.7428C17.9256 2.82888 17.8675 2.9322 17.8356 3.04447L15.9063 8.88572H8.09375L6.16451 3.04447C6.13233 2.93236 6.07412 2.82924 5.9945 2.74333C5.91487 2.65742 5.81605 2.5911 5.70591 2.54965C5.59578 2.50821 5.47738 2.49279 5.36015 2.50462C5.24292 2.51646 5.13011 2.55522 5.03071 2.61781C4.89761 2.70089 4.79466 2.8237 4.73681 2.96847L1.88011 10.3429C1.88009 10.3429 1.88013 10.3429 1.88011 10.3429L1.8504 10.4162C1.61664 11.0205 1.49937 11.6581 1.5 12.2968C1.50047 12.7819 1.56895 13.2677 1.70604 13.7399C2.02362 14.834 2.69225 15.7962 3.61111 16.4816L3.6219 16.4896L3.64615 16.5082L7.99397 19.7309L11.4614 22.3228C11.5011 22.3525 11.543 22.3786 11.5867 22.4011C11.7123 22.4658 11.8525 22.5 11.9956 22.5C12.1882 22.5 12.3757 22.4379 12.5294 22.3229L15.9969 19.731L15.9982 19.7297L15.9994 19.7307L20.3782 16.4894L20.3904 16.4801C21.3087 15.7946 21.9769 14.8325 22.2943 13.7388C22.6115 12.645 22.5608 11.4789 22.1497 10.4162L22.1213 10.3415Z" fill="#1F222E"/>
</svg>
