<svg width="24" height="24" viewBox="0 0 24 24" fill="none" xmlns="http://www.w3.org/2000/svg">
<path d="M1.77614 10.1664C1.75277 10.2016 1.76446 10.2251 1.8112 10.2251L6.04122 10.2368C6.07627 10.2368 6.1347 10.2016 6.15807 10.1664L6.35672 9.8615C6.38009 9.82631 6.3684 9.79113 6.32166 9.79113H2.15007C2.10333 9.79113 2.0449 9.81459 2.02153 9.84977L1.77614 10.1664Z" fill="#1F222E"/>
<path d="M0.0116851 11.2455C-0.0116851 11.2807 4.47033e-09 11.3041 0.0467406 11.3041L5.57381 11.2924C5.62055 11.2924 5.66729 11.2689 5.67898 11.222L5.77246 10.9405C5.78415 10.9054 5.76078 10.8702 5.71404 10.8702H0.38561C0.338869 10.8702 0.280443 10.8936 0.257073 10.9288L0.0116851 11.2455Z" fill="#1F222E"/>
<path d="M2.83949 12.3128C2.81612 12.348 2.8278 12.3832 2.87455 12.3832L5.42191 12.3949C5.45696 12.3949 5.5037 12.3597 5.5037 12.3128L5.52707 12.0313C5.52707 11.9844 5.5037 11.9492 5.45696 11.9492H3.11993C3.07319 11.9492 3.02645 11.9844 3.00308 12.0196L2.83949 12.3128Z" fill="#1F222E"/>
<path fill-rule="evenodd" clip-rule="evenodd" d="M13.9136 10.2998C14.2569 10.2083 14.5942 10.1184 15.0037 10.014C15.1439 9.97879 15.1907 9.92015 15.1206 9.81459C14.8284 9.13432 14.3844 8.57134 13.7651 8.16084C12.8186 7.51575 11.7669 7.38674 10.6685 7.58613C9.32474 7.83243 8.22634 8.52443 7.3967 9.6152C6.62548 10.6239 6.25155 11.7733 6.40346 13.0517C6.53199 14.1308 7.02277 14.9987 7.88747 15.6555C8.82228 16.3592 9.88563 16.5821 11.0308 16.4296C12.4213 16.2419 13.5197 15.5499 14.361 14.4357C14.5518 14.1833 14.7153 13.9179 14.8519 13.6409C15.0488 14.3551 15.4451 14.9686 16.0205 15.4678C16.8384 16.1716 17.8083 16.4765 18.8717 16.5C18.9759 16.4879 19.0814 16.4786 19.1879 16.4692C19.3919 16.4512 19.5992 16.4329 19.8065 16.3944C20.8932 16.1716 21.8397 15.6789 22.6109 14.8931C23.6976 13.7906 24.1533 12.5005 23.9547 10.9171C23.8028 9.79113 23.2302 8.93493 22.3071 8.30158C21.2905 7.60958 20.1687 7.4923 18.9768 7.70341C17.5863 7.94972 16.558 8.53615 15.705 9.66211C15.3395 10.1423 15.0654 10.6498 14.8965 11.1868H11.1359C10.9607 11.1868 10.8789 11.3041 10.8438 11.3745C10.6802 11.6795 10.3998 12.2893 10.2479 12.6529C10.1661 12.8523 10.2245 13.0048 10.4699 13.0048H12.7251C12.6949 13.0472 12.6663 13.0881 12.6386 13.1276C12.5592 13.2409 12.4876 13.3431 12.4096 13.4388C11.8838 14.0369 11.2177 14.3184 10.4231 14.2129C9.50002 14.0838 8.85734 13.3097 8.84565 12.3714C8.83397 11.4214 9.24295 10.6591 10.0375 10.143C10.7036 9.70903 11.4164 9.60347 12.1525 9.96706C12.3979 10.0843 12.5265 10.2134 12.7018 10.4128C12.8479 10.582 12.8643 10.5776 13.0213 10.5352C13.0275 10.5336 13.034 10.5318 13.0406 10.53C13.362 10.4468 13.6398 10.3728 13.9136 10.2998ZM21.6446 11.6361C21.6469 11.6755 21.6493 11.717 21.6527 11.7616C21.5943 12.7702 21.0918 13.5209 20.1687 14.0017C19.5494 14.3184 18.9067 14.3536 18.264 14.0721C17.4227 13.6968 16.9787 12.7702 17.189 11.8554C17.4461 10.7529 18.1472 10.0609 19.2339 9.81458C20.344 9.55655 21.4073 10.2134 21.6177 11.3745C21.6342 11.4575 21.639 11.5406 21.6446 11.6361Z" fill="#1F222E"/>
</svg>
