<svg width="24" height="24" viewBox="0 0 24 24" fill="none" xmlns="http://www.w3.org/2000/svg">
<path fill-rule="evenodd" clip-rule="evenodd" d="M5.08318 2C3.93273 2 3 2.93273 3 4.08318V16.5832C3 17.7341 3.93273 18.6664 5.08318 18.6664C6.23364 18.6664 7.16637 17.7336 7.16637 16.5832V4.08318C7.16637 2.93273 6.23364 2 5.08318 2ZM14.25 5.33318C13.0996 5.33318 12.1668 6.26591 12.1668 7.41637V7.41682V8.875C12.1668 9.5041 11.7832 10.0691 11.1986 10.3009L11.0245 10.37C10.0759 10.7464 9.01591 10.7277 8.08137 10.3177C7.52591 10.0736 7.16727 9.52455 7.16727 8.91819V15.0814C7.16727 14.4746 7.52591 13.9255 8.08137 13.6818C9.01591 13.2718 10.0759 13.2532 11.0245 13.6296L11.1986 13.6986C11.7832 13.9305 12.1668 14.4959 12.1668 15.1246V19.9164C12.1668 21.0668 13.0996 21.9996 14.25 21.9996C15.4005 21.9996 16.3332 21.0668 16.3332 19.9164V7.41637C16.3332 6.26591 15.4005 5.33318 14.25 5.33318ZM22.9999 19.7275C22.9999 20.9827 21.9824 22.0002 20.7272 22.0002C19.472 22.0002 18.4545 20.9827 18.4545 19.7275C18.4545 18.4723 19.472 17.4547 20.7272 17.4547C21.9824 17.4547 22.9999 18.4723 22.9999 19.7275Z" fill="#1F222E"/>
</svg>
