<svg width="24" height="24" viewBox="0 0 24 24" fill="none" xmlns="http://www.w3.org/2000/svg">
<path d="M16.3067 1C16.3067 6.6425 12.8222 8.58127 10.2779 9.99655C7.95439 11.2891 6.41935 12.143 6.41935 15.3002H2.19995C2.19995 9.65828 5.68313 7.72 8.22725 6.30428L8.2288 6.30342C10.5523 5.01088 12.0874 4.15697 12.0874 1H16.3067Z" fill="#1F222E"/>
<path d="M13.7224 14.0033C16.0459 12.7109 17.5809 11.8571 17.5809 8.6999H21.8C21.8 14.3428 18.3156 16.2811 15.7714 17.6964C13.4478 18.9889 11.9127 19.8429 11.9127 23H7.69351C7.69351 17.3579 11.1778 15.4191 13.7213 14.0039L13.7224 14.0033Z" fill="#1F222E"/>
</svg>
