<svg width="24" height="24" viewBox="0 0 24 24" fill="none" xmlns="http://www.w3.org/2000/svg">
<path d="M5.91829 6.28625C6.99521 6.28625 7.89738 5.44512 7.89738 4.34268C7.89738 3.24101 6.99521 2.39999 5.91829 2.39999C4.84137 2.39999 3.93946 3.24101 3.93946 4.34268C3.93946 5.44499 4.84137 6.28625 5.91829 6.28625ZM1.81484 16.6927C1.69855 17.1857 1.64021 17.7182 1.64021 18.1525C1.64021 19.8639 2.57147 21 4.55056 21C6.19189 21 7.52254 20.0287 8.48064 18.4603L7.8956 20.8H11.1548L13.0176 13.3547C13.4833 11.4697 14.3855 10.4912 15.7535 10.4912C16.8303 10.4912 17.4996 11.1586 17.4996 12.2602C17.4996 12.5794 17.4705 12.9271 17.3541 13.3043L16.3936 16.7265C16.248 17.2195 16.1901 17.7129 16.1901 18.1766C16.1901 19.8012 17.1502 20.9895 19.1584 20.9895C20.8755 20.9895 22.2432 19.888 23 17.2487L21.7196 16.7561C21.0793 18.5242 20.5262 18.8439 20.0896 18.8439C19.6531 18.8439 19.4202 18.5541 19.4202 17.9744C19.4202 17.7134 19.4787 17.4237 19.5657 17.0749L20.4973 13.7409C20.73 12.958 20.8174 12.2638 20.8174 11.6259C20.8174 9.13175 19.3039 7.83007 17.4705 7.83007C15.7535 7.83007 14.0071 9.3735 13.1342 10.9979L13.7743 8.08228H8.79789L8.09935 10.6503H10.4277L8.99391 16.3706C7.86802 18.8647 5.79984 18.9052 5.54029 18.8473C5.11408 18.7515 4.84149 18.5902 4.84149 18.0384C4.84149 17.7199 4.8997 17.2625 5.04524 16.7111L7.22819 8.08228H1.69855L1 10.6503H3.299L1.81497 16.6927" fill="#1F222E"/>
</svg>
