<svg width="24" height="24" viewBox="0 0 24 24" fill="none" xmlns="http://www.w3.org/2000/svg">
<path fill-rule="evenodd" clip-rule="evenodd" d="M2 2H22V22H2V2ZM17.4882 19.0186C16.5365 19.0186 15.9984 18.5225 15.5848 17.8475L14.0168 18.758C14.5833 19.8767 15.7409 20.7302 17.5328 20.7302C19.3655 20.7302 20.7301 19.7789 20.7301 18.0426C20.7301 16.432 19.8045 15.7157 18.1651 15.013L17.6828 14.8065C16.8549 14.4482 16.4964 14.2139 16.4964 13.6354C16.4964 13.1672 16.8546 12.8089 17.4197 12.8089C17.9738 12.8089 18.3307 13.0425 18.6615 13.6354L20.164 12.6711C19.5284 11.5537 18.6465 11.127 17.4197 11.127C15.6966 11.127 14.594 12.2281 14.594 13.6745C14.594 15.2446 15.519 15.9874 16.9113 16.5803L17.3937 16.7871C18.2736 17.1719 18.7984 17.4061 18.7984 18.0674C18.7984 18.6192 18.2877 19.0186 17.4882 19.0186ZM10.0107 19.0066C9.34776 19.0066 9.07203 18.5521 8.76893 18.0146L7.19834 18.965C7.65332 19.9275 8.54796 20.7266 10.0928 20.7266C11.8026 20.7266 12.9739 19.8177 12.9739 17.8208V11.2371H11.0445V17.7947C11.0445 18.7586 10.6446 19.0066 10.0107 19.0066Z" fill="#1F222E"/>
</svg>
