<svg width="24" height="24" viewBox="0 0 24 24" fill="none" xmlns="http://www.w3.org/2000/svg">
<path d="M11.9984 1L22.3449 11.3828V11.3857C22.6863 11.7255 22.6834 12.2774 22.3449 12.6172L12.0014 23C14.1309 20.8595 14.1309 17.3947 12.0014 15.2543L15.2458 12.0056L11.9927 8.75736L8.75621 12.0061L12.0014 15.2543C14.1309 17.3947 14.1309 20.8595 12.0014 23L12.0013 22.9971H11.9985L1.65488 12.6143C1.31347 12.2745 1.31636 11.7226 1.65488 11.3828L4.88959 8.13584L4.89115 8.1374L11.8099 1.19784C11.8608 1.14172 11.913 1.08641 11.9666 1.03195L11.9984 1Z" fill="#1F222E"/>
</svg>
