<svg width="24" height="24" viewBox="0 0 24 24" fill="none" xmlns="http://www.w3.org/2000/svg">
<path d="M13.1879 6.39845C12.6141 5.06268 12.6938 3.55799 13.5271 2.34639L14.144 1.5C12.9963 3.55342 14.0835 6.07432 15.8417 7.39823C16.1414 7.62466 16.4641 7.82188 16.84 8.00449L16.8051 7.98896C17.0007 8.08251 17.2015 8.16482 17.4065 8.23548L17.3762 8.22544C17.541 8.28728 17.7093 8.33911 17.8804 8.38066C19.8476 8.85452 21.4508 8.52766 22.4069 7.16723C22.377 7.20955 22.3388 7.27696 22.2899 7.36307C21.8614 8.11861 20.6165 10.3135 17.0114 9.62421C16.9465 9.60993 16.8826 9.58905 16.8194 9.56839C16.7978 9.56132 16.7762 9.55427 16.7547 9.54752L16.674 9.52287C16.654 9.51571 16.6343 9.50885 16.6149 9.50206C16.5747 9.48805 16.5354 9.47433 16.4953 9.45895C15.0433 8.93122 13.7975 7.81731 13.1879 6.39845Z" fill="#1F222E"/>
<path d="M9.87412 13.1686L9.95662 13.2508C10.0611 13.3512 10.1684 13.4489 10.2775 13.5466L10.2912 13.5585C10.4012 13.6553 10.525 13.7566 10.6524 13.8552L10.6716 13.8698C10.688 13.8809 10.7032 13.8929 10.7182 13.9049C10.7318 13.9158 10.7453 13.9265 10.7596 13.9365C10.888 14.0351 11.0172 14.1291 11.152 14.2232L11.1657 14.2314C11.2186 14.2696 11.2746 14.3047 11.3338 14.3417L11.3472 14.3501C11.3578 14.3569 11.369 14.3646 11.3804 14.3724C11.3967 14.3836 11.4135 14.3952 11.4297 14.4049C11.5225 14.4641 11.6136 14.5193 11.707 14.5758L11.7203 14.5838C11.7288 14.5873 11.7368 14.5913 11.7446 14.5953C11.7512 14.5986 11.7576 14.6019 11.7643 14.6048C11.8468 14.655 11.9366 14.7034 12.0228 14.7473C12.041 14.7583 12.0589 14.7676 12.0771 14.7771C12.0891 14.7833 12.1012 14.7897 12.1136 14.7966C12.175 14.8267 12.2355 14.8586 12.2941 14.8897L12.3235 14.9025C12.4395 14.959 12.558 15.0123 12.6744 15.0646L12.6975 15.075L12.7002 15.0761C12.7302 15.0875 12.756 15.0973 12.7818 15.1097C12.8836 15.1536 12.9871 15.1956 13.0889 15.2339C13.1096 15.2409 13.1298 15.2485 13.1497 15.256C13.1737 15.265 13.1973 15.2739 13.2209 15.2814C13.2861 15.3056 13.3535 15.3284 13.4197 15.3509C13.4484 15.3606 13.4771 15.3703 13.5051 15.38L13.6334 15.4211C13.6686 15.4319 13.7039 15.4436 13.7395 15.4553C13.839 15.4883 13.9403 15.5218 14.045 15.5379C21.317 16.7304 23 11.1818 23 11.1818C21.4847 13.343 18.5523 14.3729 15.4273 13.5685C15.2713 13.5293 15.1167 13.4852 14.9635 13.4361L14.9978 13.4457C14.9767 13.4396 14.9567 13.4332 14.9366 13.4267C14.9216 13.4219 14.9066 13.4171 14.8911 13.4124C14.8593 13.4014 14.8272 13.3906 14.7952 13.3797C14.731 13.358 14.6668 13.3363 14.6051 13.3138L14.4731 13.2645C14.44 13.2513 14.4068 13.2383 14.3736 13.2254C14.3037 13.1982 14.2337 13.1709 14.166 13.1412C14.155 13.1364 14.1444 13.1322 14.1343 13.1281C14.1154 13.1205 14.098 13.1136 14.0826 13.1047L14.0055 13.0703C13.9027 13.0244 13.7999 12.9785 13.6994 12.9303L13.5106 12.8326L13.4015 12.7778C13.3263 12.7388 13.2563 12.6983 13.1849 12.657L13.1586 12.6418C13.138 12.6322 13.1181 12.6212 13.099 12.6089L13.1017 12.6098C13.0667 12.5881 13.0313 12.5667 12.9958 12.5452C12.9329 12.5072 12.87 12.4691 12.8102 12.43C12.7909 12.4192 12.7726 12.407 12.7545 12.395C12.7434 12.3876 12.7324 12.3803 12.7213 12.3734L12.5306 12.2501C12.4418 12.1886 12.3542 12.1243 12.2665 12.0598C12.2238 12.0285 12.1812 11.9972 12.1383 11.9661C12.1185 11.9482 12.099 11.9324 12.0797 11.9167C12.0705 11.9092 12.0613 11.9017 12.0521 11.894C10.678 10.823 9.59453 9.35942 9.08028 7.70225C8.53852 5.97935 8.65769 4.04736 9.59361 2.47967L8.44319 4.09392C7.03059 6.10352 7.11034 8.78968 8.21035 10.9152C8.4111 11.3078 8.61461 11.6393 8.83919 11.9552L8.90208 12.0451C9.0945 12.321 9.30684 12.6253 9.55787 12.8408C9.65687 12.9531 9.7632 13.06 9.87412 13.1686Z" fill="#1F222E"/>
<path d="M2.35922 16.1032C2.33355 16.0594 2.30972 16.0156 2.28863 15.9681L2.268 15.9297C2.23804 15.8742 2.20804 15.8186 2.18047 15.7599C0.690866 12.8135 0.44978 9.20521 2.39772 6.43049L3.91207 4.52316C2.19697 7.80644 2.97247 11.8083 5.11566 14.7081L5.15233 14.7592C5.24185 14.8799 5.33353 14.9989 5.42733 15.1162L5.63542 15.3673C5.64702 15.3809 5.65806 15.3945 5.66896 15.408C5.68214 15.4243 5.69523 15.4404 5.70875 15.4559C5.80297 15.5646 5.89861 15.672 5.99567 15.7782L6.01126 15.791L6.01676 15.7973C6.10699 15.8954 6.1996 15.9913 6.29451 16.085L6.38343 16.1763C6.40925 16.2014 6.43507 16.2262 6.46082 16.2509C6.5118 16.2999 6.5627 16.3487 6.6126 16.399L6.70427 16.4849L7.02235 16.7725L7.02327 16.7734C7.13407 16.8701 7.24716 16.9642 7.36244 17.0555L7.47061 17.1413C7.52238 17.1835 7.57453 17.2235 7.62657 17.2633C7.65558 17.2855 7.68467 17.3078 7.71353 17.3303L7.73734 17.3477C7.77053 17.3718 7.80347 17.3957 7.83453 17.4207L7.81253 17.4052C7.90807 17.4768 8.00527 17.5462 8.10403 17.6134C8.11713 17.6223 8.12963 17.6313 8.14194 17.6401C8.15974 17.6529 8.17731 17.6654 8.1957 17.6773C8.28933 17.743 8.38498 17.8057 8.48252 17.8655C8.51863 17.8914 8.55566 17.916 8.59354 17.9393L8.53579 17.9046C8.6872 18.001 8.84063 18.0941 8.99596 18.184L9.02036 18.1976C9.04775 18.2126 9.07458 18.2274 9.09862 18.2443C9.14833 18.2708 9.19784 18.2981 9.24723 18.3254C9.30155 18.3553 9.3561 18.3855 9.4103 18.4141L9.39196 18.405C9.4542 18.4392 9.51748 18.4715 9.58171 18.5018L9.64448 18.5339C9.70859 18.5669 9.77349 18.6002 9.83838 18.6305C9.87013 18.6476 9.90254 18.6634 9.93555 18.678L9.80905 18.6223C9.9604 18.6953 10.1132 18.7654 10.2674 18.8323C10.2789 18.8367 10.2896 18.8414 10.3002 18.8461C10.3158 18.853 10.3311 18.8597 10.3481 18.8652C10.4782 18.9227 10.6093 18.9775 10.7441 19.0313L10.7541 19.0341C10.7848 19.0446 10.8151 19.0562 10.8449 19.0688L10.8813 19.0827C10.9908 19.1246 11.0993 19.1661 11.2116 19.2039L11.2684 19.2258L11.1813 19.1993C11.382 19.2689 11.5846 19.3325 11.7891 19.3902C11.8248 19.4005 11.8604 19.4111 11.896 19.4217C12.0044 19.4539 12.1123 19.4859 12.2199 19.5107C16.0837 20.3817 20.1638 19.5992 22.4629 16.6319C22.4629 16.6319 19.7266 23.9444 10.3096 22.2434C10.2012 22.2233 10.0964 22.1899 9.99061 22.1562C9.95228 22.144 9.91383 22.1318 9.87505 22.1201C9.85584 22.1151 9.83691 22.1092 9.81825 22.1034C9.80312 22.0988 9.78806 22.0941 9.7733 22.09C9.6303 22.0471 9.49188 22.0014 9.35163 21.954L9.30579 21.9375C9.17929 21.8928 9.05187 21.8453 8.92812 21.7987C8.91634 21.7944 8.90443 21.7895 8.89254 21.7847C8.87205 21.7763 8.85158 21.768 8.83187 21.7622C8.69529 21.7093 8.56329 21.6545 8.43128 21.597C8.41151 21.5864 8.39174 21.5783 8.37302 21.5706L8.36162 21.5659C8.24245 21.5148 8.12786 21.4627 8.01786 21.408L8.0003 21.3992C7.97707 21.3875 7.95404 21.376 7.92986 21.3651L7.9262 21.3687C7.9097 21.3596 7.89319 21.3532 7.87303 21.3468C7.79969 21.3084 7.72819 21.271 7.65944 21.2327L7.61676 21.2116C7.57427 21.1908 7.53198 21.1701 7.49077 21.1468C7.39086 21.0948 7.28819 21.0373 7.18919 20.9807C7.15344 20.9588 7.11494 20.9377 7.07644 20.9186C6.9426 20.8382 6.80877 20.7579 6.67402 20.6721L6.56401 20.599L6.30643 20.431L6.27984 20.41C6.24684 20.389 6.21476 20.3662 6.18268 20.3434C6.15565 20.3241 6.12827 20.3048 6.10082 20.2855C6.03993 20.2427 5.97826 20.1993 5.91959 20.1553L5.79492 20.0603C5.76508 20.0374 5.73512 20.0149 5.70522 19.9925C5.65532 19.955 5.60523 19.9174 5.55659 19.8786L5.442 19.7828C5.34575 19.7079 5.25133 19.6275 5.15783 19.5463L5.10558 19.5006C5.10375 19.4997 5.10283 19.4979 5.101 19.4979C4.99375 19.4066 4.892 19.3125 4.79024 19.2176L4.69766 19.129C4.61974 19.056 4.54641 18.982 4.47307 18.9072L4.46941 18.9035C4.33007 18.7866 4.20265 18.6552 4.0844 18.5072C4.08369 18.5062 4.08284 18.5053 4.08206 18.5044C4.08084 18.5031 4.07982 18.502 4.07982 18.5009L4.03473 18.4509C3.95456 18.362 3.87497 18.2738 3.79932 18.1831C3.78435 18.1667 3.76996 18.1491 3.75583 18.1318C3.74487 18.1183 3.73403 18.1051 3.72323 18.0927L3.52065 17.848C3.51038 17.8342 3.49983 17.8203 3.48927 17.8064C3.47343 17.7856 3.45758 17.7648 3.44273 17.7439C3.36756 17.6517 3.29789 17.5595 3.22823 17.4655C3.13014 17.3395 3.03848 17.2098 2.93764 17.0537C2.91866 17.0283 2.90202 17.0028 2.88538 16.9774L2.86522 16.9469C2.84163 16.9081 2.81655 16.8697 2.79149 16.8314C2.76104 16.7848 2.73063 16.7383 2.70297 16.6912C2.67501 16.6507 2.65096 16.6102 2.62649 16.569L2.62047 16.5588L2.47655 16.3178L2.45827 16.2843C2.43936 16.2497 2.4203 16.2149 2.4023 16.179L2.40082 16.1766C2.38653 16.1535 2.37073 16.1279 2.35922 16.1032Z" fill="#1F222E"/>
<path d="M8.48252 17.8655L8.47987 17.8636L8.48537 17.8672L8.48252 17.8655Z" fill="#1F222E"/>
<path d="M8.8392 11.9561L8.84928 11.9708L8.83096 11.9452L8.8392 11.9561Z" fill="#1F222E"/>
</svg>
