<svg width="24" height="24" viewBox="0 0 24 24" fill="none" xmlns="http://www.w3.org/2000/svg">
<path fill-rule="evenodd" clip-rule="evenodd" d="M11.9995 1.5C18.0647 1.5 22.999 5.51177 22.999 10.4428H23C23 12.4167 22.236 14.1933 20.6422 15.9451C18.3348 18.6058 13.1748 21.847 12.0005 22.3428C10.8578 22.8257 10.9914 22.0692 11.0439 21.7718C11.0453 21.7638 11.0466 21.7562 11.0479 21.7489C11.0757 21.5837 11.2046 20.8059 11.2046 20.8059C11.2407 20.5239 11.2799 20.088 11.1685 19.8091C11.0448 19.5024 10.5571 19.3433 10.1994 19.2658C4.91358 18.5655 1 14.8636 1 10.4428C1 5.51177 5.93425 1.5 11.9995 1.5ZM7.90861 13.2905C8.02408 13.2905 8.11893 13.1965 8.11893 13.0797V12.2978C8.11893 12.1822 8.02408 12.0871 7.90861 12.0871H5.80851V8.26954C5.80851 8.15386 5.71366 8.05883 5.59819 8.05883H4.81774C4.70124 8.05883 4.60742 8.15283 4.60742 8.26954V13.0797C4.60742 13.1965 4.70124 13.2905 4.81774 13.2905H7.90861ZM19.3389 13.2906H16.2491C16.1326 13.2906 16.0388 13.1966 16.0388 13.0799V8.27072C16.0388 8.154 16.1326 8.06001 16.2491 8.06001H19.3389C19.4544 8.06001 19.5492 8.15503 19.5492 8.27072V9.05262C19.5492 9.16934 19.4554 9.26333 19.3389 9.26333H17.2388V10.0752H19.3389C19.4544 10.0752 19.5492 10.1702 19.5492 10.2859V11.0678C19.5492 11.1845 19.4554 11.2785 19.3389 11.2785H17.2388V12.0904H19.3389C19.4544 12.0904 19.5492 12.1854 19.5492 12.3011V13.083C19.5492 13.1997 19.4554 13.2937 19.3389 13.2937V13.2906ZM8.98895 8.06001H9.76837C9.88453 8.06001 9.97869 8.15435 9.97869 8.27072V13.0799C9.97869 13.1963 9.88453 13.2906 9.76837 13.2906H8.98895C8.8728 13.2906 8.77863 13.1963 8.77863 13.0799V8.27072C8.77863 8.15435 8.8728 8.06001 8.98895 8.06001ZM15.0789 8.06001H14.2984C14.1819 8.06001 14.0881 8.154 14.0881 8.27072V11.1267L11.8921 8.15503C11.8895 8.15142 11.8867 8.1478 11.8839 8.14419C11.8819 8.14172 11.88 8.13926 11.8781 8.13679C11.8773 8.13564 11.8764 8.13449 11.8756 8.13334L11.8746 8.13231C11.8725 8.13024 11.8705 8.12792 11.8684 8.1256C11.8663 8.12327 11.8643 8.12095 11.8622 8.11888C11.8617 8.11837 11.8609 8.11785 11.8601 8.11733C11.8594 8.11682 11.8586 8.1163 11.8581 8.11578C11.856 8.11423 11.8542 8.11268 11.8524 8.11114C11.8506 8.10959 11.8488 8.10804 11.8467 8.10649C11.8457 8.10597 11.8447 8.1052 11.8437 8.10442C11.8426 8.10365 11.8416 8.10287 11.8406 8.10236C11.8375 8.09926 11.8333 8.09719 11.8292 8.09513C11.8285 8.09478 11.8278 8.09432 11.8272 8.09383C11.8268 8.09358 11.8265 8.09332 11.8261 8.09306C11.8251 8.09229 11.8241 8.09151 11.823 8.09099L11.8117 8.0848L11.8055 8.0817C11.8014 8.07963 11.7973 8.07757 11.7931 8.07653C11.7926 8.07653 11.7921 8.0764 11.7916 8.07621C11.7911 8.07606 11.7907 8.07586 11.7903 8.07566C11.789 8.07509 11.7876 8.07447 11.7859 8.07447C11.7839 8.07395 11.7818 8.07318 11.7797 8.0724C11.7777 8.07163 11.7756 8.07085 11.7735 8.07034C11.7715 8.07034 11.7684 8.0693 11.7663 8.06827C11.7636 8.06827 11.7608 8.06735 11.7581 8.06643L11.754 8.06517C11.7509 8.06517 11.7478 8.06517 11.7447 8.06414C11.7437 8.06414 11.7428 8.06408 11.7419 8.06399C11.7409 8.06389 11.74 8.06376 11.739 8.06362C11.7372 8.06336 11.7354 8.06311 11.7333 8.06311H10.9395C10.824 8.06311 10.7292 8.1571 10.7292 8.27382V13.083C10.7292 13.1987 10.823 13.2937 10.9395 13.2937H11.7199C11.8364 13.2937 11.9303 13.1997 11.9303 13.083V10.227L14.1293 13.2028C14.1448 13.2245 14.1633 13.2421 14.184 13.2555C14.184 13.2555 14.1849 13.2559 14.1855 13.2565C14.1858 13.2568 14.186 13.2572 14.186 13.2575C14.1889 13.2597 14.1918 13.2614 14.1951 13.2633L14.1994 13.2658L14.2056 13.2689C14.2072 13.2699 14.209 13.2707 14.2108 13.2715C14.2126 13.2723 14.2144 13.273 14.2159 13.2741C14.2184 13.2757 14.2216 13.2767 14.2243 13.2776L14.2262 13.2782C14.2273 13.2782 14.2283 13.2787 14.2293 13.2792C14.2304 13.2798 14.2314 13.2803 14.2324 13.2803C14.2376 13.2823 14.2417 13.2834 14.2469 13.2844H14.2499C14.2675 13.2885 14.286 13.2916 14.3046 13.2916H15.0799C15.1954 13.2916 15.2902 13.1976 15.2902 13.0809V8.27175C15.2902 8.15607 15.1964 8.06104 15.0799 8.06104L15.0789 8.06001Z" fill="#1F222E"/>
</svg>
