<svg width="24" height="24" viewBox="0 0 24 24" fill="none" xmlns="http://www.w3.org/2000/svg">
<path fill-rule="evenodd" clip-rule="evenodd" d="M7.5 1.5C4.18629 1.5 1.5 4.18629 1.5 7.5V16.5C1.5 19.8137 4.18629 22.5 7.5 22.5H16.5C19.8137 22.5 22.5 19.8137 22.5 16.5V7.5C22.5 4.18629 19.8137 1.5 16.5 1.5H7.5ZM18.3866 7.83426C18.4865 7.73538 18.5655 7.61699 18.6196 7.48607L18.6182 7.48746C18.6723 7.35655 18.7 7.21588 18.7 7.07521C18.6987 6.78969 18.5863 6.51671 18.3853 6.31476C18.1842 6.11281 17.9124 6 17.6281 6C13.9054 6 12.5247 8.66778 11.4145 10.813L11.4114 10.8189L10.6861 12.1922C9.51156 14.4694 8.63237 15.8524 6.36922 15.8524C6.22916 15.8524 6.09049 15.8802 5.96013 15.9345C5.83117 15.9875 5.7133 16.0669 5.61345 16.1671C5.51499 16.266 5.43595 16.3844 5.38187 16.5153C5.32778 16.6448 5.30005 16.7855 5.30005 16.9262C5.30005 17.2103 5.41237 17.4833 5.61345 17.6852C5.81314 17.8858 6.08494 18 6.36922 18C10.0933 18 11.474 15.3322 12.5843 13.187L12.5873 13.1811L13.3112 11.8078C14.4872 9.53064 15.3663 8.14763 17.6281 8.14763C17.7696 8.14903 17.9082 8.12117 18.0386 8.06685C18.1689 8.01254 18.2868 7.93454 18.3866 7.83426Z" fill="#1F222E"/>
</svg>
