<svg width="24" height="24" viewBox="0 0 24 24" fill="none" xmlns="http://www.w3.org/2000/svg">
<g clip-path="url(#clip0_205_1471)">
<path d="M13.5372 12C13.5372 15.7832 10.5067 18.85 6.76861 18.85C3.0305 18.85 0 15.7832 0 12C0 8.21683 3.0305 5.14999 6.76861 5.14999C10.5067 5.14999 13.5372 8.21683 13.5372 12Z" fill="#1F222E"/>
<path d="M20.9627 11.9998C20.9627 15.5611 19.4474 18.4479 17.5783 18.4479C15.7091 18.4479 14.1938 15.5609 14.1938 11.9998C14.1938 8.4388 15.7093 5.55179 17.5785 5.55179C19.4477 5.55179 20.9629 8.4388 20.9629 11.9998" fill="#1F222E"/>
<path d="M24 12C24 15.1907 23.4672 17.7773 22.8097 17.7773C22.1522 17.7773 21.6194 15.1907 21.6194 12C21.6194 8.80927 22.1522 6.22275 22.8097 6.22275C23.4672 6.22275 24 8.80927 24 12Z" fill="#1F222E"/>
</g>
<defs>
<clipPath id="clip0_205_1471">
<rect width="24" height="13.7" fill="white" transform="translate(0 5.14999)"/>
</clipPath>
</defs>
</svg>
