<svg width="24" height="24" viewBox="0 0 24 24" fill="none" xmlns="http://www.w3.org/2000/svg">
<path d="M17.007 4.39999C15.121 4.39999 13.6467 5.81267 12.3123 7.60701C10.4783 5.28493 8.94453 4.39999 7.10905 4.39999C3.36717 4.39999 0.5 9.24297 0.5 14.369C0.5 17.5766 2.06052 19.5998 4.67412 19.5998C6.5553 19.5998 7.90826 18.7178 10.3135 14.5368C10.3135 14.5368 11.3162 12.776 12.0058 11.5631C12.2475 11.9511 12.5021 12.3693 12.7694 12.8177L13.8972 14.7046C16.0943 18.3609 17.3185 19.6 19.5366 19.6C22.083 19.6 23.5 17.5492 23.5 14.2749C23.5 8.90781 20.5682 4.40015 17.0068 4.40015L17.007 4.39999ZM8.47943 13.4045C6.52932 16.4445 5.85483 17.1259 4.76904 17.1259C3.68324 17.1259 2.98766 16.1504 2.98766 14.4109C2.98766 10.6895 4.8534 6.88441 7.07756 6.88441C8.28196 6.88441 9.28843 7.57615 10.8301 9.77101C9.36622 12.004 8.47943 13.4045 8.47943 13.4045ZM15.8392 13.0218L14.4907 10.7851C14.1257 10.1949 13.7751 9.65154 13.4386 9.15527C14.654 7.28964 15.6564 6.36017 16.8489 6.36017C19.326 6.36017 21.3076 9.98715 21.3076 14.4422C21.3076 16.1404 20.7484 17.1258 19.5895 17.1258C18.4788 17.1258 17.9482 16.3963 15.8392 13.0217V13.0218Z" fill="#1F222E"/>
</svg>
