<svg width="24" height="24" viewBox="0 0 24 24" fill="none" xmlns="http://www.w3.org/2000/svg">
<path d="M12.2765 19C11.1894 19 10.189 18.4195 9.66374 17.4867C9.40554 17.0296 9.27678 16.511 9.29127 15.9864C9.30573 15.4619 9.46292 14.9511 9.74596 14.509L15.1257 6.07557C15.3975 5.6149 15.7878 5.23522 16.256 4.97594C16.7243 4.71666 17.2535 4.5872 17.7887 4.601C18.885 4.62495 19.8785 5.23736 20.381 6.19532C20.88 7.15327 20.8069 8.30168 20.1868 9.19007L14.8082 17.6235C14.5359 18.0468 14.1613 18.3948 13.7188 18.6353C13.2763 18.8759 12.7803 19.0013 12.2765 19Z" fill="#1F222E"/>
<path d="M2.99168 19C2.46004 19.0011 1.93762 18.8613 1.4778 18.5949C1.01797 18.3284 0.637216 17.9448 0.374429 17.4833C0.115667 17.025 -0.0133853 16.505 0.00109782 15.9791C0.0155809 15.4532 0.173053 14.9411 0.456647 14.4977L5.84645 6.04511C6.12231 5.59084 6.51395 5.21782 6.98139 4.96417C7.44885 4.71052 7.97533 4.58533 8.50707 4.60138C9.03843 4.61409 9.55685 4.76756 10.0093 5.04609C10.4617 5.32461 10.832 5.71818 11.0821 6.18652C11.5845 7.13533 11.5217 8.27686 10.9199 9.16751L5.53357 17.6201C5.2604 18.0452 4.88424 18.3945 4.43988 18.6357C3.99553 18.8769 3.49741 19.0022 2.99168 19Z" fill="#1F222E"/>
<path d="M23.9999 16.2757C23.9999 17.7803 22.7434 19 21.1934 19C19.6435 19 18.387 17.7803 18.387 16.2757C18.387 14.7711 19.6435 13.5513 21.1934 13.5513C22.7434 13.5513 23.9999 14.7711 23.9999 16.2757Z" fill="#1F222E"/>
</svg>
