<svg width="24" height="24" viewBox="0 0 24 24" fill="none" xmlns="http://www.w3.org/2000/svg">
<path fill-rule="evenodd" clip-rule="evenodd" d="M5.12124 4.85706C5.80212 5.41299 6.05755 5.37058 7.33615 5.28484L19.3899 4.55747C19.6456 4.55747 19.433 4.30117 19.3477 4.25858L17.3459 2.80419C16.9623 2.5049 16.4512 2.16217 15.4718 2.24791L3.80009 3.10343C3.37442 3.14584 3.28941 3.35973 3.45892 3.53117L5.12124 4.85706ZM5.84493 7.68014V20.4258C5.84493 21.1108 6.18554 21.3671 6.95217 21.3247L20.1993 20.5543C20.9663 20.512 21.0517 20.0408 21.0517 19.4844V6.82423C21.0517 6.26869 20.8391 5.9691 20.3695 6.01186L6.5262 6.82423C6.0153 6.86738 5.84493 7.12421 5.84493 7.68014ZM18.9224 8.36384C19.0074 8.74917 18.9224 9.13414 18.5383 9.17747L17.9 9.30527V18.7149C17.3459 19.0143 16.8348 19.1854 16.409 19.1854C15.7272 19.1854 15.5564 18.9714 15.0458 18.3302L10.8707 11.7433V18.1163L12.1919 18.4159C12.1919 18.4159 12.1919 19.1854 11.126 19.1854L8.18757 19.3567C8.10221 19.1854 8.18757 18.758 8.48563 18.6724L9.25243 18.4588V10.0326L8.18778 9.94686C8.10238 9.56154 8.31504 9.00595 8.91182 8.96284L12.0641 8.7493L16.409 15.4219V9.51912L15.3012 9.39136C15.2162 8.9203 15.5564 8.57825 15.9825 8.53584L18.9224 8.36384ZM2.82011 1.94867L14.9605 1.05017C16.4514 0.921669 16.835 1.00775 17.772 1.6918L21.6474 4.42915C22.2869 4.89986 22.5 5.02802 22.5 5.54115V20.5543C22.5 21.4953 22.1589 22.0517 20.9665 22.1368L6.8678 22.9924C5.97266 23.0353 5.54665 22.9071 5.07787 22.308L2.22399 18.5868C1.71266 17.9018 1.5 17.3894 1.5 16.7899V3.44513C1.5 2.67569 1.84117 2.03384 2.82011 1.94867Z" fill="#1F222E"/>
</svg>
