<svg width="24" height="24" viewBox="0 0 24 24" fill="none" xmlns="http://www.w3.org/2000/svg">
<path d="M6.3199 2.36575C6.35284 2.15532 6.53432 2 6.74807 2H13.2762C15.4879 2 17.0542 2.47303 17.8799 3.41282C18.3031 3.89544 18.5539 4.38875 18.666 4.96086C18.78 5.54232 18.7564 6.23568 18.5825 7.12274C18.1716 9.23194 17.2776 10.5951 16.0875 11.4411C14.8867 12.2948 13.3245 12.6648 11.5054 12.6648H9.59018C8.88221 12.6648 8.28675 13.1799 8.17694 13.8747L7.2631 19.671H3.66008C3.62434 19.671 3.59492 19.6384 3.60087 19.6001L6.3199 2.36575Z" fill="#1F222E"/>
<path d="M16.6671 12.2561C18.0291 11.2879 19.0061 9.79272 19.4881 7.67511C19.5622 7.74102 19.631 7.81002 19.6945 7.8821C20.3788 8.66203 20.5614 9.82116 20.26 11.3688C19.903 13.2018 19.1281 14.379 18.1025 15.1081C17.0663 15.8448 15.7139 16.167 14.1301 16.167H13.622C12.9763 16.167 12.4259 16.6346 12.3221 17.2723L12.282 17.4891L11.6416 21.5518L11.6082 21.724L11.6069 21.7322C11.5823 21.8867 11.4495 21.9999 11.2935 21.9999H7.90851L9.16503 14.03C9.19873 13.8174 9.37856 13.6644 9.59047 13.6644H11.5057C13.4483 13.6644 15.2395 13.2709 16.6671 12.2561Z" fill="#1F222E"/>
</svg>
