<svg width="24" height="24" viewBox="0 0 24 24" fill="none" xmlns="http://www.w3.org/2000/svg">
<path d="M12.0678 1.2C5.9805 1.2 1 6.18461 1 12.2769C1 16.8462 3.76695 20.7231 7.64067 22.3846C7.64067 21.5538 7.64065 20.7231 7.779 19.8923C8.0557 18.9231 9.16247 13.8 9.16247 13.8C9.16247 13.8 8.74745 13.1077 8.74745 12C8.74745 10.3385 9.71588 9.0923 10.8227 9.0923C11.7911 9.0923 12.3445 9.78461 12.3445 10.7538C12.3445 11.7231 11.6527 13.2462 11.376 14.6308C11.0993 15.7385 11.9294 16.7077 13.1746 16.7077C15.2498 16.7077 16.6332 14.0769 16.6332 10.7538C16.6332 8.26153 14.9731 6.46154 12.0678 6.46154C8.74744 6.46154 6.67224 8.95384 6.67224 11.7231C6.67224 12.6923 6.94894 13.3846 7.36398 13.9385C7.50232 14.2154 7.64066 14.2154 7.50231 14.4923C7.50231 14.6308 7.36397 15.1846 7.22562 15.3231C7.08727 15.6 6.94894 15.7385 6.67224 15.6C5.15042 14.9077 4.45868 13.2462 4.45868 11.3077C4.45868 8.12307 7.08727 4.38461 12.3445 4.38461C16.6332 4.38461 19.4002 7.43077 19.4002 10.7538C19.4002 15.0462 17.0483 18.3692 13.4512 18.3692C12.2061 18.3692 11.0993 17.6769 10.6843 16.9846C10.6843 16.9846 9.99256 19.4769 9.85421 20.0308C9.57751 20.8615 9.16249 21.6923 8.74745 22.3846C9.71588 22.6615 10.8226 22.8 11.9294 22.8C18.0167 22.8 22.9972 17.8154 22.9972 11.7231C23.1355 6.18461 18.155 1.2 12.0678 1.2Z" fill="#1F222E"/>
</svg>
