<svg width="24" height="24" viewBox="0 0 24 24" fill="none" xmlns="http://www.w3.org/2000/svg">
<path d="M13.9471 12C13.9471 13.0732 13.0754 13.9433 12 13.9433C10.9247 13.9433 10.0529 13.0732 10.0529 12C10.0529 10.9268 10.9247 10.0568 12 10.0568C13.0754 10.0568 13.9471 10.9268 13.9471 12Z" fill="#1F222E"/>
<path fill-rule="evenodd" clip-rule="evenodd" d="M11.0972 3.77943C11.3956 4.02146 11.6973 4.28899 12 4.58007C12.3027 4.28899 12.6044 4.02146 12.9028 3.77942C13.7187 3.11763 14.5335 2.62732 15.2987 2.38025C16.0639 2.13321 16.8406 2.11256 17.5 2.49254C18.1594 2.87251 18.5299 3.55413 18.6981 4.33899C18.8663 5.12393 18.8483 6.07335 18.6819 7.10943C18.6211 7.48834 18.5398 7.88284 18.4386 8.29004C18.8425 8.40615 19.2255 8.53312 19.5847 8.67C20.5669 9.04428 21.3998 9.5034 21.9968 10.0413C22.5937 10.5791 23 11.2401 23 12C23 12.76 22.5937 13.4209 21.9968 13.9587C21.3998 14.4966 20.5669 14.9557 19.5847 15.33C19.2255 15.4669 18.8425 15.5939 18.4386 15.71C18.5398 16.1172 18.6211 16.5117 18.6819 16.8906C18.8482 17.9266 18.8663 18.8761 18.6981 19.661C18.5299 20.4459 18.1594 21.1275 17.5 21.5075C16.8406 21.8874 16.0639 21.8668 15.2987 21.6197C14.5335 21.3727 13.7187 20.8824 12.9028 20.2206C12.6044 19.9785 12.3027 19.711 12 19.4199C11.6973 19.711 11.3956 19.9785 11.0972 20.2206C10.2813 20.8824 9.46651 21.3727 8.70128 21.6197C7.93612 21.8668 7.15944 21.8874 6.5 21.5075C5.84056 21.1275 5.47014 20.4459 5.30193 19.661C5.13371 18.8761 5.15175 17.9266 5.31807 16.8906C5.3789 16.5117 5.46022 16.1172 5.56143 15.71C5.15749 15.5939 4.77451 15.4669 4.4153 15.33C3.43309 14.9557 2.60021 14.4966 2.00321 13.9587C1.40626 13.4209 1 12.76 1 12C1 11.2401 1.40626 10.5791 2.00321 10.0413C2.60021 9.5034 3.43309 9.04428 4.4153 8.67C4.77451 8.53312 5.15749 8.40615 5.56143 8.29004C5.46021 7.88284 5.3789 7.48834 5.31807 7.10943C5.15175 6.07336 5.1337 5.12393 5.30192 4.33899C5.47013 3.55413 5.84056 2.87251 6.5 2.49254C7.15943 2.11256 7.93612 2.13321 8.70127 2.38025C9.46651 2.62732 10.2813 3.11764 11.0972 3.77943ZM17.6182 4.5695C17.4885 3.96413 17.2424 3.6167 16.9479 3.44697C16.6533 3.27724 16.2288 3.23829 15.6386 3.42884C15.0485 3.61936 14.3539 4.02255 13.5992 4.63467C13.327 4.85549 13.05 5.10101 12.7705 5.36956C13.3741 6.02625 13.9744 6.76987 14.554 7.585C15.5512 7.6784 16.4966 7.82548 17.3682 8.01883C17.4615 7.64296 17.5361 7.28079 17.5916 6.93508C17.7454 5.97676 17.7479 5.17479 17.6182 4.5695ZM10.4008 4.63467C10.673 4.85549 10.95 5.10101 11.2295 5.36956C10.6259 6.02625 10.0256 6.76987 9.44595 7.585C8.44883 7.6784 7.50338 7.82548 6.63175 8.01883C6.53848 7.64296 6.46393 7.28079 6.40843 6.93508C6.25459 5.97677 6.25205 5.1748 6.38177 4.56951C6.51151 3.96414 6.75757 3.6167 7.05213 3.44698C7.34669 3.27725 7.7712 3.23829 8.36138 3.42884C8.95147 3.61936 9.6461 4.02255 10.4008 4.63467ZM15.3586 8.78463C15.9565 8.86382 16.5276 8.96341 17.0661 9.08089C16.8988 9.60502 16.6996 10.1484 16.4694 10.7048C16.2992 10.3817 16.1203 10.0577 15.9329 9.73382C15.7455 9.40995 15.5538 9.09333 15.3586 8.78463ZM18.1387 9.35074C17.8707 10.2008 17.5256 11.0915 17.1081 12C17.5256 12.9085 17.8707 13.7992 18.1387 14.6493C18.5115 14.542 18.8631 14.4253 19.1908 14.3004C20.0993 13.9542 20.7965 13.5554 21.2568 13.1407C21.7173 12.7259 21.8957 12.3395 21.8957 12C21.8957 11.6605 21.7173 11.2742 21.2568 10.8593C20.7965 10.4446 20.0993 10.0458 19.1908 9.69959C18.8631 9.57471 18.5115 9.45805 18.1387 9.35074ZM14.9766 10.2849C15.3096 10.8605 15.6135 11.4342 15.8875 12C15.6135 12.5658 15.3096 13.1395 14.9766 13.7151C14.6436 14.2907 14.2977 14.8403 13.9438 15.36C13.3158 15.406 12.666 15.4303 12 15.4303C11.334 15.4303 10.6842 15.406 10.0562 15.36C9.70233 14.8403 9.35642 14.2907 9.02342 13.7151C8.69043 13.1395 8.38655 12.5658 8.11248 12C8.38655 11.4342 8.69044 10.8605 9.02343 10.2849C9.35642 9.70925 9.70233 9.15973 10.0562 8.63996C10.6842 8.59396 11.334 8.56974 12 8.56974C12.666 8.56974 13.3158 8.59396 13.9438 8.63996C14.2977 9.15973 14.6436 9.70925 14.9766 10.2849ZM15.9329 14.2662C15.7455 14.59 15.5538 14.9067 15.3586 15.2154C15.9565 15.1362 16.5276 15.0366 17.0661 14.9191C16.8988 14.395 16.6996 13.8516 16.4694 13.2952C16.2992 13.6183 16.1203 13.9423 15.9329 14.2662ZM12 16.5324C12.3747 16.5324 12.7453 16.525 13.1108 16.5105C12.7431 16.9878 12.3712 17.4316 12 17.8382C11.6288 17.4316 11.2569 16.9878 10.8892 16.5105C11.2547 16.525 11.6253 16.5324 12 16.5324ZM14.554 16.415C13.9744 17.2301 13.3741 17.9737 12.7705 18.6304C13.05 18.899 13.327 19.1445 13.5992 19.3653C14.3539 19.9774 15.0485 20.3806 15.6386 20.5712C16.2288 20.7617 16.6533 20.7228 16.9479 20.553C17.2424 20.3833 17.4885 20.0359 17.6182 19.4305C17.7479 18.8252 17.7454 18.0232 17.5916 17.0649C17.5361 16.7192 17.4615 16.357 17.3682 15.9812C16.4966 16.1745 15.5512 16.3216 14.554 16.415ZM9.44595 16.415C10.0256 17.2301 10.6259 17.9737 11.2295 18.6304C10.95 18.899 10.673 19.1445 10.4008 19.3653C9.64611 19.9774 8.95148 20.3806 8.36138 20.5712C7.77121 20.7617 7.3467 20.7227 7.05214 20.553C6.75758 20.3833 6.51152 20.0359 6.38178 19.4305C6.25205 18.8252 6.2546 18.0232 6.40844 17.0649C6.46394 16.7192 6.53848 16.357 6.63176 15.9812C7.50338 16.1745 8.44883 16.3216 9.44595 16.415ZM8.64143 15.2154C8.0435 15.1362 7.47238 15.0366 6.93395 14.9191C7.10122 14.395 7.30036 13.8516 7.53061 13.2952C7.70084 13.6183 7.87974 13.9423 8.0671 14.2662C8.25446 14.59 8.44615 14.9067 8.64143 15.2154ZM8.0671 9.73382C7.87974 10.0577 7.70084 10.3817 7.53061 10.7048C7.30036 10.1484 7.10122 9.60502 6.93394 9.08089C7.47238 8.96341 8.0435 8.86382 8.64143 8.78463C8.44616 9.09333 8.25446 9.40995 8.0671 9.73382ZM5.86126 14.6493C6.1293 13.7992 6.47439 12.9085 6.8919 12C6.47438 11.0915 6.1293 10.2008 5.86125 9.35074C5.48847 9.45805 5.13692 9.57471 4.80919 9.69959C3.9007 10.0458 3.20353 10.4446 2.74315 10.8593C2.28272 11.2742 2.10427 11.6605 2.10427 12C2.10427 12.3395 2.28272 12.7259 2.74315 13.1407C3.20353 13.5554 3.9007 13.9542 4.80919 14.3004C5.13692 14.4253 5.48847 14.542 5.86126 14.6493ZM12 7.46765C11.6253 7.46765 11.2547 7.47503 10.8892 7.48946C11.2569 7.01225 11.6288 6.56842 12 6.16178C12.3712 6.56842 12.7431 7.01225 13.1108 7.48945C12.7453 7.47503 12.3747 7.46765 12 7.46765Z" fill="#1F222E"/>
</svg>
