<svg width="24" height="24" viewBox="0 0 24 24" fill="none" xmlns="http://www.w3.org/2000/svg">
<path d="M23.9997 11.8094C24.0033 12.0559 23.9727 12.302 23.9078 12.54C23.843 12.7779 23.7448 13.006 23.616 13.2166C23.4876 13.4271 23.3299 13.6187 23.148 13.7856C22.966 13.9525 22.7615 14.0929 22.5403 14.2026C22.5453 14.2683 22.5493 14.3344 22.5516 14.4006C22.557 14.5325 22.557 14.6645 22.5516 14.7964C22.5493 14.8626 22.5453 14.9287 22.5403 14.9944C22.5403 19.0251 17.8379 22.3 12.0364 22.3C6.23488 22.3 1.53242 19.0251 1.53242 14.9944C1.52747 14.9287 1.52342 14.8626 1.52116 14.7964C1.51574 14.6645 1.51574 14.5325 1.52116 14.4006C1.52342 14.3344 1.52747 14.2683 1.53242 14.2026C1.18594 14.0436 0.878191 13.8112 0.630486 13.5216C0.38278 13.2321 0.201031 12.8922 0.0978147 12.5256C-0.00522945 12.1588 -0.0271793 11.774 0.0334864 11.3979C0.0941522 11.0218 0.235983 10.6633 0.449148 10.3474C0.662126 10.0315 0.941368 9.76569 1.2675 9.56838C1.59363 9.37107 1.95884 9.247 2.33779 9.20475C2.71679 9.16233 3.10049 9.20272 3.4623 9.32312C3.82412 9.44352 4.1554 9.64105 4.43317 9.90203C4.94884 9.55296 5.48911 9.24159 6.04976 8.97038C6.61054 8.69957 7.19024 8.46924 7.78435 8.2821C8.37846 8.09496 8.98564 7.95146 9.60047 7.85204C10.2153 7.75263 10.8369 7.69819 11.4598 7.68875L12.7931 1.44478C12.808 1.37235 12.8372 1.30397 12.8791 1.24279C12.9206 1.18206 12.9742 1.12988 13.0359 1.08984C13.098 1.0498 13.1674 1.02236 13.2404 1.00887C13.3129 0.995821 13.3877 0.997171 13.4597 1.01292L17.8739 1.89463C18.3194 1.13033 19.2545 0.802834 20.0801 1.12133C20.9057 1.43983 21.3778 2.31029 21.1931 3.17491C21.0089 4.03953 20.2224 4.64234 19.3387 4.5969C18.4545 4.55147 17.7343 3.87129 17.6397 2.99227L13.784 2.18254L12.6129 7.79671C13.2282 7.80976 13.8421 7.86734 14.4493 7.96856C15.6652 8.17098 16.8455 8.54764 17.9536 9.08689C18.5071 9.3559 19.0404 9.6644 19.5495 10.01C19.9155 9.65902 20.3755 9.42138 20.8738 9.32577C21.3721 9.22981 21.8875 9.27997 22.3579 9.47017C22.8284 9.66028 23.2337 9.98227 23.525 10.3973C23.8163 10.8124 23.9812 11.3028 23.9997 11.8094ZM6.11957 14.2975C6.21056 14.5157 6.34298 14.7141 6.51054 14.881C6.67765 15.0484 6.87629 15.1806 7.09475 15.2715C7.31341 15.3618 7.54773 15.4083 7.78435 15.4082C8.51314 15.4082 9.16986 14.9696 9.44913 14.2975C9.72794 13.625 9.57344 12.8513 9.05816 12.3366C8.54287 11.822 7.76813 11.6677 7.09475 11.9462C6.42181 12.2251 5.98264 12.881 5.98264 13.6088C5.98264 13.845 6.02904 14.0789 6.11957 14.2975ZM16.4389 18.617C16.5312 18.5271 16.5839 18.4043 16.5857 18.2756C16.5875 18.1465 16.5375 18.0223 16.4474 17.9301C16.3573 17.8379 16.2344 17.7853 16.1055 17.7835C15.9763 17.7817 15.8519 17.8316 15.7479 17.9094C15.477 18.1035 15.1901 18.2743 14.8903 18.42C14.5905 18.5658 14.2789 18.686 13.9588 18.7794C13.639 18.8726 13.3115 18.9387 12.9805 18.9769C12.649 19.0152 12.3152 19.0251 11.9823 19.0071C11.6499 19.0219 11.3166 19.0084 10.9864 18.967C10.6562 18.9261 10.3301 18.8568 10.0117 18.7601C9.69281 18.6638 9.38336 18.5406 9.08563 18.3921C8.7879 18.2437 8.50323 18.07 8.23478 17.8734C8.14154 17.797 8.02308 17.7578 7.90236 17.7637C7.78165 17.7695 7.66769 17.8204 7.58211 17.9054C7.49698 17.9909 7.44608 18.1047 7.44022 18.2252C7.43437 18.3458 7.47356 18.4641 7.55013 18.5572C7.86678 18.7956 8.20325 19.0062 8.55593 19.187C8.90861 19.3679 9.27661 19.5177 9.65497 19.6355C10.0333 19.7534 10.4211 19.8384 10.8144 19.8901C11.2076 19.9414 11.6044 19.959 12.0003 19.9428C12.3963 19.959 12.7931 19.9414 13.1863 19.8901C13.9739 19.7867 14.7378 19.5488 15.4448 19.187C15.7974 19.0062 16.1339 18.7956 16.4506 18.5572L16.4389 18.617ZM16.1082 15.5522C16.3524 15.5549 16.5947 15.5077 16.8204 15.4141C17.046 15.3201 17.2501 15.1815 17.4203 15.0065C17.5906 14.8315 17.723 14.6237 17.8104 14.3956C17.8978 14.1678 17.9378 13.9246 17.928 13.6808C17.928 12.9529 17.4888 12.2971 16.8159 12.0181C16.1425 11.7397 15.3677 11.894 14.8524 12.4086C14.3372 12.9232 14.1827 13.697 14.4615 14.3695C14.7407 15.0416 15.3975 15.4802 16.1263 15.4802L16.1082 15.5522Z" fill="#1F222E"/>
</svg>
