<svg width="24" height="24" viewBox="0 0 24 24" fill="none" xmlns="http://www.w3.org/2000/svg">
<path fill-rule="evenodd" clip-rule="evenodd" d="M15.0144 2.89864C15.4436 2.76871 15.7049 2.69446 15.7049 2.69446C15.7186 2.69446 15.7348 2.69197 15.7553 2.68881C15.7908 2.68335 15.8392 2.67589 15.9102 2.67589V23L1.80005 20.5683C1.80005 20.5683 3.51716 7.50029 3.57316 7.03623C3.64781 6.42367 3.66648 6.4051 4.31973 6.20092C4.33839 6.18235 5.23428 5.90392 6.52211 5.5141C6.65276 4.53029 7.13803 3.26804 7.77262 2.26566C8.6685 0.836347 9.78836 0.0381582 10.9082 0.00103313C11.4868 -0.0156731 11.9721 0.169952 12.3454 0.578328C12.3547 0.59689 12.3687 0.610812 12.3827 0.624734C12.3967 0.638656 12.4107 0.652578 12.42 0.67114C12.4947 0.652578 12.5507 0.652578 12.6067 0.652578C13.4652 0.652578 14.1931 1.15377 14.6784 2.08189C14.8277 2.37889 14.9397 2.65733 15.0144 2.89864ZM11.2166 4.06969C11.6355 3.94055 12.0474 3.81359 12.4387 3.69683C12.4574 3.08427 12.3827 2.1747 12.0654 1.50645C11.7481 1.65495 11.4681 1.89627 11.2628 2.10045C10.7402 2.67589 10.2923 3.54833 10.0683 4.42077C10.4502 4.30595 10.8363 4.18692 11.2166 4.06969ZM11.5801 0.931016C11.3935 0.81964 11.1695 0.763953 10.9082 0.763953C9.1911 0.801078 7.6793 3.49264 7.26868 5.27465C7.8846 5.08902 8.55652 4.88483 9.22843 4.68064C9.4524 3.54833 9.99367 2.36033 10.7029 1.59927C10.9829 1.32083 11.2815 1.07952 11.5801 0.931016ZM9.89862 12.1595C9.28164 11.7664 8.77262 11.4421 8.74316 10.9733C8.7245 10.7506 8.74316 9.87815 10.1243 9.78534C11.0762 9.71109 11.8788 10.0823 11.8788 10.0823L12.588 7.40934C12.588 7.40934 11.9721 7.11234 10.7589 7.18659C7.6233 7.39077 6.20482 9.56259 6.35413 11.7158C6.44841 13.1535 7.30102 13.755 8.04759 14.2818C8.63128 14.6936 9.15016 15.0597 9.1911 15.7439C9.20977 16.1152 8.96713 16.6535 8.31388 16.6906C7.30601 16.7648 6.0555 15.8182 6.0555 15.8182L5.57023 17.86C5.57023 17.86 6.82074 19.1965 9.09778 19.048C10.9829 18.9367 12.2894 17.4331 12.1587 15.2242C12.0457 13.5273 10.8451 12.7625 9.89862 12.1595ZM12.8493 1.45077C13.1106 2.11902 13.1853 2.91721 13.1853 3.47408C13.5959 3.34414 13.9692 3.23277 14.3051 3.13996C14.1185 2.56452 13.7079 1.61783 12.8493 1.45077ZM22.2001 21.5169L16.3395 22.9647V2.89865C16.7128 3.2699 17.7206 4.23515 17.7206 4.23515C17.7206 4.23515 19.3631 4.27228 19.4564 4.27228C19.5497 4.27228 19.6431 4.34653 19.6617 4.4579C19.6804 4.56928 22.2001 21.5169 22.2001 21.5169Z" fill="#1F222E"/>
</svg>
