<svg width="24" height="24" viewBox="0 0 24 24" fill="none" xmlns="http://www.w3.org/2000/svg">
<path fill-rule="evenodd" clip-rule="evenodd" d="M1.1138 9.46007L5.58261 3.39267C5.67325 3.26714 5.81268 3.18345 5.97303 3.16951L11.9407 2.5C11.9826 2.5 12.0244 2.5 12.0662 2.5L18.0339 3.16253C18.1873 3.17648 18.3268 3.26017 18.4244 3.3857L22.8932 9.46007C23.0465 9.66929 23.0326 9.95523 22.8653 10.1575L12.3172 22.355C12.1638 22.5294 11.8989 22.5503 11.7246 22.3969C11.7107 22.3829 11.6967 22.369 11.6828 22.355L1.13471 10.1575C0.967396 9.9622 0.953453 9.66929 1.10683 9.46007H1.1138ZM13.5372 4.2993L17.7551 8.28146C17.8666 8.38607 18.0409 8.38607 18.1525 8.26752C18.2082 8.21172 18.2361 8.13501 18.2292 8.05829L18.027 5.23382C18.027 5.1571 18.0758 5.08736 18.1525 5.08039C18.2222 5.08039 18.278 5.11526 18.2989 5.185L19.2261 8.42094C19.2888 8.64411 19.4562 8.81846 19.6793 8.8882L21.6522 9.54376C21.7219 9.56468 21.7638 9.64837 21.7429 9.71811C21.7219 9.7739 21.6731 9.81575 21.6104 9.81575H19.7141C19.4771 9.81575 19.254 9.93431 19.1285 10.1366L13.9625 18.2613C13.8998 18.3589 13.7673 18.3868 13.6697 18.3241C13.5791 18.2683 13.5512 18.1567 13.593 18.059L17.295 10.4155C17.3926 10.2063 17.3089 9.95523 17.0997 9.85759C17.044 9.8297 16.9812 9.81575 16.9185 9.81575H7.10243C6.87237 9.81575 6.68413 10.004 6.68413 10.2342C6.68413 10.297 6.69808 10.3597 6.72596 10.4155L10.4279 18.059C10.4767 18.1636 10.4279 18.2892 10.3303 18.338C10.2327 18.3868 10.1211 18.3519 10.0654 18.2613L4.89939 10.1366C4.77391 9.93431 4.55081 9.81575 4.31378 9.81575H2.34081C2.26412 9.81575 2.20137 9.75298 2.20137 9.67627C2.20137 9.6135 2.2432 9.56468 2.29898 9.54376L4.32772 8.8882C4.55081 8.81846 4.71813 8.63714 4.78088 8.41397L5.70113 5.17802C5.72205 5.10131 5.79874 5.05947 5.87542 5.08039C5.93817 5.10131 5.98 5.1571 5.98 5.22684L5.77782 8.05132C5.76388 8.20475 5.88239 8.33726 6.03577 8.3512C6.11246 8.3512 6.18915 8.33028 6.24492 8.27449L10.4628 4.29232C10.5185 4.23653 10.6022 4.23653 10.658 4.29232C10.7068 4.34114 10.7137 4.42483 10.6649 4.48062L7.83445 7.96066C7.73685 8.07922 7.75776 8.25357 7.87628 8.3512C7.92508 8.39305 7.98783 8.41397 8.05057 8.41397H15.9425C16.0958 8.41397 16.2213 8.28844 16.2213 8.13501C16.2213 8.07224 16.2004 8.00948 16.1586 7.96066L13.3281 4.48062C13.2793 4.42483 13.2863 4.33417 13.342 4.28535C13.3978 4.23653 13.4815 4.24351 13.5303 4.29232L13.5372 4.2993Z" fill="#1F222E"/>
</svg>
