<svg width="24" height="24" viewBox="0 0 24 24" fill="none" xmlns="http://www.w3.org/2000/svg">
<path d="M12.1012 18.3827C8.40079 18.3827 6.75613 16.4815 6.75613 15.1235C6.75613 14.8519 6.89325 14.4444 7.16736 14.3086C7.44146 14.037 7.71553 14.037 7.98963 14.037C9.4972 14.037 9.08605 16.3457 12.1012 16.3457C13.6088 16.3457 14.4311 15.3951 14.4311 14.5802C14.4311 14.037 14.1569 13.4938 13.1976 13.2222L9.90839 12.4074C7.30441 11.7284 6.89324 10.2346 6.89324 9.01234C6.89324 6.16049 9.49723 5.20988 11.9642 5.20988C14.157 5.20988 16.898 6.4321 16.898 8.06173C16.898 8.74074 16.3498 9.14815 15.5275 9.14815C14.157 9.14815 14.4311 7.24691 11.69 7.24691C10.3195 7.24691 9.63427 7.92593 9.63427 8.74074C9.63427 9.55555 10.7306 9.96296 11.5529 10.0988L14.0199 10.642C16.6239 11.1852 17.3091 12.8148 17.3091 14.1728C17.3091 16.7531 15.5275 18.3827 12.1012 18.3827ZM22.243 13.6296C22.3801 13.0864 22.3801 12.4074 22.3801 11.8642C22.3801 8.87654 21.0095 6.02469 18.6796 3.98765C16.3498 1.95062 13.1976 1.2716 10.1824 1.67901C9.36012 1.2716 8.26377 1 7.16736 1C4.97453 1 2.91872 2.22222 1.82231 4.12346C0.725897 6.02469 0.725897 8.33333 1.82231 10.2346C1.2741 13.4938 2.23343 16.8889 4.70036 19.3333C7.03024 21.642 10.4566 22.7284 13.7458 22.1852C14.7052 22.7284 15.6646 23 16.761 23C18.9538 23 21.0095 21.7778 22.1059 19.8765C23.2023 17.8395 23.3394 15.5309 22.243 13.6296Z" fill="#1F222E"/>
</svg>
