<svg width="24" height="24" viewBox="0 0 24 24" fill="none" xmlns="http://www.w3.org/2000/svg">
<path d="M12 1C5.92465 1 1 5.92465 1 12C1 18.0754 5.92465 23 12 23C18.0754 23 23 18.0754 23 12C23 5.92465 18.0767 1 12 1ZM17.0455 16.8655C16.8485 17.1887 16.4255 17.2911 16.1023 17.0928C13.5198 15.5152 10.2687 15.1579 6.43957 16.0327C6.07046 16.1168 5.70265 15.8856 5.61858 15.5165C5.53451 15.1474 5.76439 14.7796 6.13482 14.6955C10.3252 13.7379 13.9192 14.1503 16.8196 15.9224C17.1427 16.1207 17.2452 16.5424 17.0468 16.8655H17.0455ZM18.3919 13.8706C18.1437 14.2738 17.6156 14.4012 17.2123 14.153C14.2554 12.335 9.74851 11.8095 6.25042 12.8709C5.79723 13.0075 5.31777 12.7527 5.17984 12.2995C5.04323 11.8463 5.29938 11.3682 5.75125 11.2302C9.74588 10.0178 14.7126 10.605 18.1082 12.6923C18.5115 12.9405 18.6389 13.4686 18.3906 13.8719L18.3919 13.8706ZM18.5075 10.7521C14.9621 8.64641 9.11273 8.45199 5.72761 9.48053C5.18378 9.64473 4.60974 9.33867 4.44423 8.79484C4.28003 8.25102 4.5861 7.67698 5.12993 7.51146C9.01552 6.33186 15.4758 6.56042 19.5571 8.98268C20.0471 9.27299 20.2073 9.90482 19.917 10.3922C19.628 10.8808 18.9949 11.0424 18.5075 10.7521Z" fill="#1F222E"/>
</svg>
