<svg width="24" height="24" viewBox="0 0 24 24" fill="none" xmlns="http://www.w3.org/2000/svg">
<path d="M14.4011 1C24.2473 7.69388 21.0625 15.0758 21.0625 15.0758C21.0625 15.0758 23.8623 18.2362 22.7307 21C22.7307 21 21.5758 19.0641 19.6392 19.0641C17.7726 19.0641 16.676 21 12.9195 21C4.55491 21 0.600098 14.0146 0.600098 14.0146C8.13641 18.9708 13.2812 15.4606 13.2812 15.4606C9.88633 13.4898 2.665 4.06706 2.665 4.06706C8.95304 9.41983 11.6712 10.8309 11.6712 10.8309C10.0497 9.4898 5.49987 2.93586 5.49987 2.93586C9.1397 6.62099 16.3727 11.7638 16.3727 11.7638C18.4259 6.07289 14.4011 1 14.4011 1Z" fill="#1F222E"/>
</svg>
