<svg width="24" height="24" viewBox="0 0 24 24" fill="none" xmlns="http://www.w3.org/2000/svg">
<path d="M12 5C8.7999 5 6.79995 6.60003 5.99985 9.7998C7.2 8.19977 8.60003 7.59998 10.1999 7.99984C11.1129 8.22798 11.7653 8.89051 12.4877 9.62359C13.6641 10.8178 15.0257 12.1999 18.0002 12.1999C21.1999 12.1999 23.2002 10.5998 24 7.39975C22.8001 8.99978 21.4001 9.59987 19.7999 9.20001C18.8873 8.97187 18.2348 8.30934 17.5125 7.57626C16.336 6.38209 14.9741 5 12 5ZM5.99985 12.1999C2.80005 12.1999 0.7998 13.7999 0 17C1.19985 15.3999 2.59988 14.7998 4.20008 15.2C5.11272 15.4284 5.76516 16.0907 6.48753 16.8234C7.66397 18.0176 9.02589 19.4 12 19.4C15.2001 19.4 17.2001 17.8 18.0002 14.5999C16.8 16.1999 15.4 16.8 13.8001 16.3999C12.8871 16.172 12.2347 15.5092 11.5123 14.7764C10.3359 13.5822 8.97427 12.1999 5.99985 12.1999Z" fill="#1F222E"/>
</svg>
