<svg width="24" height="24" viewBox="0 0 24 24" fill="none" xmlns="http://www.w3.org/2000/svg">
<path d="M17.2854 11.1968C17.19 11.1509 17.0934 11.1074 16.9956 11.0661C16.8253 7.93687 15.1092 6.14594 12.2266 6.1276C12.2139 6.1276 12.2001 6.1276 12.1875 6.1276C10.4633 6.1276 9.03003 6.86094 8.14778 8.19469L9.73284 9.2775C10.3919 8.28177 11.426 8.06865 12.1886 8.06865C12.1978 8.06865 12.2059 8.06865 12.2151 8.06865C13.1641 8.07438 13.8795 8.34938 14.3431 8.88563C14.6801 9.27635 14.9056 9.8149 15.0171 10.4955C14.1763 10.3534 13.2664 10.3088 12.2933 10.3649C9.5534 10.5219 7.79235 12.1134 7.90967 14.326C7.96949 15.4478 8.53082 16.4138 9.49013 17.044C10.3011 17.5768 11.3444 17.838 12.4302 17.7784C13.8634 17.7005 14.9872 17.1551 15.7717 16.1594C16.3675 15.4031 16.7437 14.4234 16.9105 13.1882C17.5937 13.5984 18.0998 14.1393 18.3793 14.789C18.8544 15.8924 18.882 17.7074 17.3959 19.1867C16.0938 20.4826 14.5283 21.0429 12.1633 21.0601C9.53959 21.0406 7.55539 20.203 6.2648 18.5691C5.05703 17.0394 4.43244 14.8291 4.40943 12.0011C4.43244 9.17323 5.05703 6.96292 6.2648 5.43323C7.55539 3.79927 9.53959 2.96167 12.1633 2.94219C14.8055 2.96167 16.8253 3.80385 18.1642 5.44583C18.821 6.25135 19.3157 7.26312 19.6423 8.44333L21.5 7.94948C21.1043 6.49656 20.482 5.24417 19.6343 4.20604C17.9181 2.10115 15.4059 1.02292 12.1702 1H12.1576C8.92765 1.02177 6.44424 2.10458 4.77637 4.2175C3.29138 6.09781 2.52531 8.71375 2.5 11.992V12V12.008C2.52531 15.2874 3.29138 17.9033 4.77637 19.7825C6.44424 21.8954 8.92765 22.9771 12.1576 23H12.1702C15.0413 22.9805 17.0646 22.2311 18.7325 20.572C20.9134 18.4006 20.8478 15.6804 20.1289 14.0098C19.6136 12.8124 18.6301 11.8396 17.2854 11.1968ZM12.3278 15.8397C11.127 15.9073 9.87892 15.3699 9.81796 14.2195C9.77195 13.367 10.4276 12.4148 12.4014 12.3014C12.628 12.2887 12.8489 12.2819 13.0674 12.2819C13.7852 12.2819 14.4558 12.3518 15.0654 12.4835C14.8377 15.3138 13.5034 15.7732 12.3278 15.8374V15.8397Z" fill="#1F222E"/>
</svg>
