<svg width="24" height="24" viewBox="0 0 24 24" fill="none" xmlns="http://www.w3.org/2000/svg">
<path fill-rule="evenodd" clip-rule="evenodd" d="M20.007 1.5H3.99635C2.61899 1.5 1.5019 2.61631 1.50002 3.99455V19.9919C1.49736 20.6562 1.75917 21.2942 2.22761 21.7648C2.69605 22.2354 3.33253 22.5 3.99635 22.5H20.007C20.6702 22.4991 21.3059 22.2342 21.7735 21.7636C22.2412 21.2931 22.5026 20.6557 22.5 19.9919V3.99455C22.4981 2.61762 21.383 1.50185 20.007 1.5ZM10.5567 16.6255C10.5559 16.8475 10.4666 17.0601 10.3088 17.2161C10.1509 17.3721 9.93748 17.4588 9.71564 17.457H6.21677C5.75916 17.4552 5.38916 17.0834 5.38916 16.6255V6.20632C5.38916 5.7484 5.75916 5.37665 6.21677 5.3748H9.71564C10.1738 5.37664 10.5448 5.74785 10.5466 6.20632L10.5567 16.6255ZM18.631 11.8417C18.631 12.0641 18.5421 12.2771 18.3841 12.4334C18.226 12.5896 18.0121 12.676 17.7899 12.6733H14.2911C13.8329 12.6714 13.4619 12.3002 13.4601 11.8417V6.20632C13.4619 5.74785 13.8329 5.37664 14.2911 5.3748H17.7899C18.2475 5.37665 18.6176 5.7484 18.6176 6.20632L18.631 11.8417Z" fill="#1F222E"/>
</svg>
