<svg width="24" height="24" viewBox="0 0 24 24" fill="none" xmlns="http://www.w3.org/2000/svg">
<path d="M24 5.57692C23.175 5.99231 22.35 6.13077 21.3875 6.26923C22.35 5.71538 23.0375 4.88462 23.3125 3.77692C22.4875 4.33077 21.525 4.60769 20.425 4.88462C19.6 4.05385 18.3625 3.5 17.125 3.5C14.2375 3.5 12.0375 6.26923 12.725 9.03846C9.0125 8.9 5.7125 7.1 3.375 4.33077C2.1375 6.40769 2.825 9.03846 4.75 10.4231C4.0625 10.4231 3.375 10.1462 2.6875 9.86923C2.6875 11.9462 4.2 13.8846 6.2625 14.4385C5.575 14.5769 4.8875 14.7154 4.2 14.5769C4.75 16.3769 6.4 17.7615 8.4625 17.7615C6.8125 19.0077 4.3375 19.7 2 19.4231C4.0625 20.6692 6.4 21.5 8.875 21.5C17.2625 21.5 21.9375 14.4385 21.6625 7.93077C22.625 7.37692 23.45 6.54615 24 5.57692Z" fill="#1F222E"/>
</svg>
