<svg width="24" height="24" viewBox="0 0 24 24" fill="none" xmlns="http://www.w3.org/2000/svg">
<path fill-rule="evenodd" clip-rule="evenodd" d="M2 2H22V22H2V2ZM14.3253 19.8383V17.8597L14.3281 17.8612C14.6851 18.1615 15.0717 18.3872 15.4892 18.5381C15.9067 18.689 16.3284 18.7637 16.7544 18.7637C17.0032 18.7637 17.2211 18.7412 17.408 18.696C17.5936 18.6509 17.7496 18.5874 17.8747 18.5071C17.9998 18.4267 18.094 18.3308 18.1545 18.2222C18.2149 18.1136 18.2458 17.9951 18.2458 17.8668C18.2458 17.6933 18.1966 17.5382 18.0982 17.4028C17.9998 17.2674 17.8649 17.1419 17.6962 17.0263C17.5275 16.9106 17.3251 16.7992 17.0917 16.6921C16.857 16.5849 16.6053 16.4763 16.3354 16.3649C15.6466 16.0758 15.1336 15.7232 14.7962 15.3072C14.4574 14.8912 14.2887 14.3891 14.2887 13.7996C14.2887 13.3371 14.3815 12.9408 14.5656 12.6094C14.7498 12.2779 15 12.0044 15.3177 11.79C15.634 11.5756 16.0023 11.4191 16.4198 11.3176C16.8373 11.2174 17.2885 11.1667 17.7468 11.1667C18.2051 11.1667 18.6113 11.1935 18.9656 11.2499C19.3198 11.3063 19.6459 11.3909 19.9453 11.5065V13.3554C19.7977 13.2524 19.6375 13.1622 19.4632 13.0832C19.2889 13.0056 19.1103 12.9408 18.9262 12.8886C18.742 12.8378 18.5593 12.7997 18.3766 12.7744C18.1952 12.7504 18.0223 12.7377 17.8578 12.7377C17.6329 12.7377 17.4277 12.7588 17.2435 12.8026C17.0594 12.8449 16.9034 12.9055 16.7768 12.9845C16.6489 13.0621 16.5505 13.1551 16.4816 13.2651C16.4128 13.3751 16.3776 13.4978 16.3776 13.6332C16.3776 13.7813 16.417 13.9153 16.4943 14.0323C16.5716 14.1508 16.6827 14.2608 16.826 14.3665C16.9694 14.4709 17.1423 14.5738 17.3476 14.6754C17.5528 14.7755 17.7833 14.8799 18.042 14.9871C18.3934 15.1351 18.7097 15.2931 18.9909 15.4595C19.2706 15.6259 19.511 15.8149 19.712 16.025C19.913 16.2351 20.0662 16.4763 20.1731 16.7456C20.2799 17.015 20.3333 17.3295 20.3333 17.6877C20.3333 18.1827 20.2391 18.5973 20.0536 18.9329C19.8666 19.27 19.6136 19.5408 19.2945 19.7495C18.9754 19.9582 18.6043 20.1077 18.1798 20.1979C17.7552 20.2882 17.3209 20.3333 16.8373 20.3333C16.3537 20.3333 15.894 20.291 15.4583 20.2092C15.0225 20.126 14.6444 20.0033 14.3253 19.8383ZM13.5858 12.9365H11.0134V20.1923H8.97648V12.9365H6.41666V11.3077H13.5858V12.9365Z" fill="#1F222E"/>
</svg>
