<svg width="24" height="24" viewBox="0 0 24 24" fill="none" xmlns="http://www.w3.org/2000/svg">
<path d="M1 8.03237L1.95766 9.24194C1.95766 9.24194 3.73618 7.76358 4.42023 8.56996C4.96746 9.24194 7.43003 17.8433 8.11407 19.4561C8.79812 20.8001 10.7134 22.6816 12.7656 21.3376C14.8177 19.9937 21.6582 14.349 22.8894 7.49478C24.1207 0.774949 14.6809 2.11892 13.7232 8.03237C16.049 6.55401 17.4171 8.56996 16.049 10.9891C14.8177 13.2738 13.5864 14.8866 13.0392 14.8866C12.492 14.8866 11.9447 13.2738 11.2607 10.5859C10.5766 7.62918 10.5766 2.52211 7.56683 3.19409C4.69384 3.73168 1 8.03237 1 8.03237Z" fill="#1F222E"/>
</svg>
