<svg width="24" height="24" viewBox="0 0 24 24" fill="none" xmlns="http://www.w3.org/2000/svg">
<path d="M19.0695 15.7335C18.1921 18.5074 15.6109 20.3928 12.6888 20.4C12.6888 20.4 11.2387 10.1424 11.2387 9.91121L9.06344 15.5457C8.09184 18.0451 6.20665 20.4 2.72628 20.4L0 3.81443C2.74804 3.87945 5.01027 5.98876 5.26405 8.71209C5.26405 8.71209 5.62659 14.7944 5.62659 15.2712L8.19335 8.6543C9.12145 6.15491 10.8906 3.79999 14.226 3.79999C14.226 3.79999 15.6761 14.7511 15.6761 15.2567L17.7789 8.6543H17.7644C18.6924 6.15491 20.5196 3.79999 24 3.79999L19.0695 15.7335Z" fill="#1F222E"/>
</svg>
