<svg width="24" height="24" viewBox="0 0 24 24" fill="none" xmlns="http://www.w3.org/2000/svg">
<path fill-rule="evenodd" clip-rule="evenodd" d="M0 9.70192C0 5.63918 3.86394 2.39999 8.65298 2.39999C13.0067 2.39999 16.5988 5.0902 17.1975 8.54896H16.7076C12.3539 8.54896 8.8165 11.5136 8.8165 15.1921C8.8165 15.8509 8.92539 16.4549 9.08866 17.0039H8.59885C7.61924 17.0039 6.63963 16.8941 5.76891 16.6196C5.66002 16.5647 5.60564 16.5647 5.49675 16.5647C5.33348 16.5647 5.22459 16.5647 5.06133 16.6746L3.15661 17.7725C3.10223 17.8274 3.04772 17.8274 2.99334 17.8274C2.83007 17.8274 2.72118 17.7175 2.72118 17.5528C2.72118 17.5254 2.73476 17.4843 2.74835 17.4432C2.76195 17.402 2.77556 17.3608 2.77556 17.3333C2.77556 17.2783 2.99321 16.3999 3.15648 15.8509C3.21086 15.796 3.21086 15.741 3.21086 15.6862C3.21086 15.4666 3.15648 15.3019 2.99321 15.1921C1.14288 13.8744 0 11.898 0 9.70192ZM10.3944 7.396C10.3944 7.99997 10.8842 8.54896 11.5373 8.54896C12.1904 8.54896 12.7346 7.99997 12.6802 7.396C12.6802 6.79202 12.136 6.24303 11.5373 6.24303C10.9386 6.24303 10.3944 6.73716 10.3944 7.396ZM4.62577 7.396C4.62577 7.99997 5.11558 8.54896 5.76865 8.54896C6.42173 8.54896 6.91153 7.99997 6.91153 7.396C6.91153 6.79202 6.42173 6.24303 5.76865 6.24303C5.16996 6.24303 4.62577 6.73716 4.62577 7.396Z" fill="#1F222E"/>
<path fill-rule="evenodd" clip-rule="evenodd" d="M24 15.1922C24 17.0589 23.0204 18.7059 21.4966 19.8039C21.3878 19.8589 21.2788 20.0236 21.2788 20.2432V20.4079C21.3332 20.6272 21.4147 20.9151 21.4827 21.1551C21.5508 21.3957 21.6054 21.5883 21.6054 21.6157C21.6597 21.6706 21.6597 21.7256 21.6597 21.7804C21.6597 21.8901 21.551 22 21.4421 22C21.4149 22 21.3877 21.9863 21.3604 21.9726C21.3332 21.9588 21.306 21.9451 21.2788 21.9451L19.7006 21.0119C19.5919 20.9569 19.483 20.902 19.3197 20.902C19.2925 20.902 19.2517 20.9157 19.2109 20.9295C19.1701 20.9432 19.1293 20.9569 19.1021 20.9569C18.3946 21.1764 17.5783 21.2863 16.7619 21.2863C12.7347 21.2863 9.52386 18.5412 9.52386 15.1922C9.52386 11.8432 12.7347 9.09809 16.7619 9.09809C20.7891 9.09809 24 11.8432 24 15.1922ZM18.1768 13.2157C18.1768 13.7647 18.6123 14.2039 19.1565 14.2039C19.7006 14.2039 20.1361 13.7647 20.1361 13.2157C20.1361 12.6667 19.7006 12.2274 19.1565 12.2274C18.6123 12.2274 18.1768 12.6667 18.1768 13.2157ZM13.3878 13.2157C13.3878 13.7647 13.8232 14.2039 14.3674 14.2039C14.9116 14.2039 15.347 13.7647 15.347 13.2157C15.347 12.6667 14.9116 12.2274 14.3674 12.2274C13.8232 12.2274 13.3878 12.6667 13.3878 13.2157Z" fill="#1F222E"/>
</svg>
