<svg width="24" height="24" viewBox="0 0 24 24" fill="none" xmlns="http://www.w3.org/2000/svg">
<path d="M2.56358 11.9996C2.56358 15.735 4.73424 18.9627 7.88187 20.4925L3.38056 8.15928C2.84096 9.36763 2.56256 10.6763 2.56358 11.9996Z" fill="#1F222E"/>
<path d="M18.3703 11.5235C18.3703 10.3572 17.9514 9.54959 17.5921 8.92096C17.5552 8.86102 17.5185 8.8018 17.4822 8.74317C17.0473 8.04144 16.6656 7.42546 16.6656 6.7081C16.6656 5.84067 17.3233 5.0332 18.25 5.0332C18.277 5.0332 18.303 5.03536 18.3291 5.03752C18.3435 5.03871 18.3579 5.03991 18.3725 5.04074C16.6934 3.50266 14.4567 2.56358 12 2.56358C8.70334 2.56358 5.80296 4.255 4.11567 6.81692C4.33706 6.82356 4.54588 6.82805 4.72293 6.82805C5.70995 6.82805 7.2378 6.70828 7.2378 6.70828C7.74648 6.6783 7.80645 7.42543 7.29849 7.48558C7.29849 7.48558 6.78711 7.54574 6.21828 7.57554L9.65463 17.7968L11.7199 11.6034L10.2495 7.57536C9.74136 7.54556 9.25996 7.4854 9.25996 7.4854C8.75146 7.4556 8.81107 6.67812 9.31958 6.7081C9.31958 6.7081 10.878 6.82787 11.8052 6.82787C12.792 6.82787 14.3201 6.7081 14.3201 6.7081C14.8291 6.67812 14.8889 7.42525 14.3806 7.4854C14.3806 7.4854 13.8683 7.54556 13.3005 7.57536L16.7107 17.7192L17.6517 14.5739L17.7256 14.3381C18.0967 13.1543 18.3703 12.2818 18.3703 11.5235Z" fill="#1F222E"/>
<path d="M12.1656 12.8251L9.33434 21.052C10.1999 21.3071 11.0977 21.4366 12 21.4366C13.0989 21.4366 14.1528 21.2464 15.1337 20.9017C15.1074 20.8605 15.0849 20.817 15.0665 20.7717L12.1656 12.8251Z" fill="#1F222E"/>
<path d="M20.2801 7.47229C20.3207 7.77287 20.3437 8.09571 20.3437 8.44262C20.3437 9.40019 20.1649 10.4766 19.6262 11.8226L16.7438 20.1563C19.5492 18.5204 21.4361 15.4811 21.4361 11.9996C21.4386 10.4172 21.041 8.85982 20.2801 7.47229Z" fill="#1F222E"/>
<path fill-rule="evenodd" clip-rule="evenodd" d="M1 11.9996C1 5.9344 5.93477 1 12 1C18.0651 1 23.0004 5.9344 23.0006 11.9996C23.0006 18.0658 18.0651 23 12 23C5.93459 23 1 18.0656 1 11.9996ZM1.50438 11.9996C1.50438 17.7871 6.2129 22.4956 12 22.4956C17.7868 22.4956 22.4951 17.7871 22.4951 11.9996C22.4951 6.21271 17.787 1.50455 12 1.50455C6.21272 1.50455 1.50438 6.21271 1.50438 11.9996Z" fill="#1F222E"/>
</svg>
