<svg width="24" height="24" viewBox="0 0 24 24" fill="none" xmlns="http://www.w3.org/2000/svg">
<path fill-rule="evenodd" clip-rule="evenodd" d="M20.9125 4.38126C21.9188 4.66876 22.6375 5.38751 22.925 6.39376C23.5 8.26251 23.5 12 23.5 12C23.5 12 23.5 15.7375 23.0688 17.6063C22.7813 18.6125 22.0625 19.3313 21.0562 19.6188C19.1875 20.05 12 20.05 12 20.05C12 20.05 4.66875 20.05 2.94375 19.6188C1.9375 19.3313 1.21875 18.6125 0.931254 17.6063C0.500004 15.7375 0.5 12 0.5 12C0.5 12 0.499996 8.26251 0.787496 6.39376C1.075 5.38751 1.79376 4.66876 2.80001 4.38126C4.66876 3.95001 11.8562 3.95001 11.8562 3.95001C11.8562 3.95001 19.1875 3.95001 20.9125 4.38126ZM15.7373 12L9.69983 15.45V8.55003L15.7373 12Z" fill="#1F222E"/>
</svg>
